<svg xmlns="http://www.w3.org/2000/svg" width="100" height="100">
  <g fill-rule="evenodd" clip-rule="evenodd">
    <path fill="#A6A6A6" d="M71.1 51.6c7.8 4.7 13.5 10 20.3 14.8 4.2 3.3 7.4 5.7 7.4 5.7s-3.8-.9-9.8-2.3c-6.3-1-12.6-2.1-18.9-3.5-3.2-.7-6.3-1.3-9.5-2.1C42 58.9 23.1 53.6 4.2 48.3c18.9-.9 37.8 3.5 56.8 3.6 6.1-.1 10.1-.3 10.1-.3z"/>
    <path fill="#E8C569" d="M84.9 50.7c3.5 2.9 4.4 7.3 6.8 10.5 1.7 2.7 3.5 5.5 4.8 7.5 1.3 2.1 2.2 3.5 2.2 3.5s-3.2-2.5-7.4-5.7c-6.8-4.9-12.5-10.2-20.1-14.6 1.9 0 4.7-1.8 6.7-.7 3.5-.3 7-.5 7-.5z"/>
    <path fill="#D9B766" d="M71.1 51.6c8.7-7.7 18.2-15.7 27.6-23.6-11 3.9-22.1 7.2-33.3 10.1-2.8.7-5.6 3.4-8.5 4-17.7 2.9-34.7 2.7-52.7 6.2 18.9-.9 37.8 3.5 56.8 3.6 6.1-.1 10.1-.3 10.1-.3z"/>
    <path fill="#CCC" d="M84.9 50.7C90.3 43.9 94 35 98.8 28c-9.5 8-18.9 15.9-27.4 23.9 1.9 0 4.7-1.8 6.7-.7 3.3-.3 6.8-.5 6.8-.5z"/>
    <path fill="#E8C569" d="M84.9 50.7c3.5 2.9 4.4 7.3 6.8 10.5 1.7 2.7 3.5 5.5 4.8 7.5 1.3 2.1 2.2 3.5 2.2 3.5s-3.2-2.5-7.4-5.7c-6.8-4.9-12.5-10.2-20.1-14.6 1.9 0 4.7-1.8 6.7-.7 3.5-.3 7-.5 7-.5z"/>
  </g>
  <g clip-rule="evenodd" fill="none" stroke="#4C4C4C" stroke-width=".914" stroke-miterlimit="10">
    <path d="M98.8 72.6s-3.8-.9-9.8-2.3c-6.3-1.3-12.6-2.6-18.9-4-3.2-.7-6.3-1.3-9.5-2.1-18.6-4.4-36.5-11.5-56.4-15 20.8-.9 42.5 2.7 63.3 2.6h17c2.8 0 4.7 6.2 7.1 9.8 1.7 2.7 3.5 5.5 4.8 7.5 1.5 2.1 2.4 3.5 2.4 3.5z"/>
    <path d="M98.8 28.5C93.1 35.9 89 49 83.6 51.2c-2.6 1-5.2-.2-7.9.4-2.7.6-11.4-.7-14.1-.6C51 51 26 47.4 4.2 49.2c18-6.2 38.8-3.5 57.1-9.5 3.1-.8 6.3-1.6 9.4-2.5 6.2-1.7 12.4-3.7 18.5-6 5.9-1.7 9.6-2.7 9.6-2.7z"/>
  </g>
  <g fill="none" stroke="#4C4C4C" stroke-width=".914" stroke-miterlimit="10">
    <path d="M33.9 54.1l3.8 3.6M41.6 56.5l4.7 4.5M48.4 57.2l6.4 6M57.9 57.6c1.5 1.5 3 2.7 4.4 3.9 1.4 1.2 2.6 2.5 3.7 4.1M66.2 60.8l6.3 6.4M71.7 61.4l7.3 6.5M78.2 61.2c4.5 2.1 6.4 6.6 10.2 9.2M81.9 60.2s3.7 2.6 7.4 5.4c3.8 2.9 7.6 5.7 7.6 5.7M23.3 51.4l3.8 2.8"/>
  </g>
</svg>
