<!-- <svg xmlns="http://www.w3.org/2000/svg" width="100" height="100">
  <g stroke="#000" stroke-width="2.9114">
    <path fill="#FFF" d="M97.5 74.7c0 8.1-6.5 14.6-14.4 14.6H21.9c-10.8 0-19.5-8.8-19.5-19.7 0-9.9 7.2-18 16.5-19.5-1-3-1.6-6.3-1.6-9.7 0-16.4 13.2-29.8 29.4-29.8 15.4 0 28.1 12 29.3 27.2 9.3 1.5 16.4 9.6 16.4 19.4 0 1.9-.3 3.8-.8 5.6 3.7 2.9 5.9 7.1 5.9 11.9z"/>
    <path fill="none" stroke-linecap="round" d="M83.2 40.5c-10.2-5.3-22.6-1.3-27.8 9"/>
  </g>
</svg> -->

<svg xmlns="http://www.w3.org/2000/svg" viewBox="136.5 236.5 100 100">
   <linearGradient id="n" x1="397.9639" x2="388.1513" y1="-462.2446" y2="-386.8094" gradientTransform="matrix(1 0 0 -1 -206 -135)" gradientUnits="userSpaceOnUse">
    <stop offset="0" stop-color="#69a9c4"/>
    <stop offset=".0254" stop-color="#6facc6"/>
    <stop offset=".2648" stop-color="#a2cada"/>
    <stop offset=".4899" stop-color="#cae1ea"/>
    <stop offset=".6943" stop-color="#e7f1f6"/>
    <stop offset=".871" stop-color="#f9fbfd"/>
    <stop offset="1" stop-color="#fff"/>
  </linearGradient>
  <path fill="url(#n)" stroke="#000" stroke-miterlimit="10" stroke-width="1.6647" d="M204.334 320.5c15.334 8.333 23.666-3.831 23.666-3.831s10.833-14.667 1.112-20.499c-.094 0-.461.056-.553 0 11.94.666 5.697-24.13-3.033-17.972 4.732-17.142-27.251-26.128-25.78-13.979-5.039-11.407-37.563-13.312-31.913-1.551-8-7.833-21.5 4.664-15.925 18.747l-.409-.417c-17.326-16.918-15.221 25.322-5.294 15.116-5.055 12.536 13.88 32.116 21.186 15.586 2.712 12.814 17.442 14.799 17.442 14.799s17.834 1.834 19.501-5.999z"/>
</svg>