<svg xmlns="http://www.w3.org/2000/svg" viewBox="0 0 187.5 82" preserveAspectRatio="none">
  <path fill="#b6ac9f" fill-rule="evenodd" stroke="#000" stroke-miterlimit="10" stroke-width="2" d="M84.9 37.3c0-4.7-.1-9.2 0-13.7.1-5.3 2.9-7 7.5-4.2 12.4 7.7 24.8 15.5 37.1 23.3 12.3 7.8 24.6 15.8 36.9 23.7 5.6 3.6 11.3 7.3 16.8 11 .8.5 1.1 1.8 1.7 2.7-1 .4-2.3 1.3-3.1 1-4.3-1.6-8.6-3.3-12.8-5.2-20.4-9.4-40.7-18.9-61.1-28.3-1.2-.6-2.7-.7-4.5-1.2 0 5 .1 9.6 0 14.1-.1 4.9-2.6 6.4-7.1 3.9-6.2-3.6-12.1-7.5-18.1-11.3-17.2-11-34.3-21.8-51.4-32.7C19.9 16.1 13 11.7 6.2 7.2c-1.1-.7-1.4-2.6-2.1-3.9 1.4-.2 3.1-1 4.3-.5 8.1 3.5 16.2 7.2 24.2 11 16.7 7.7 33.3 15.4 50 23.1.5.3 1.3.2 2.3.4z" clip-rule="evenodd"/>
</svg>