<svg xmlns="http://www.w3.org/2000/svg" width="100" height="100">
  <g id="moon">
    <g id="face2" stroke="#000" stroke-miterlimit="10">
      <path fill="none" d="M62.7 37.1C66 33 70 33 75.8 35.9"/>
      <path fill="#CCC" d="M80 19C74 13 66 9 58 6.6c-.3-.1-.7-.2-1-.3-2.3 0-4.5-.5-6.5-1.2-2.8-.4-5.6-.5-8.5-.4C36 5 30 6 24.5 9l-.3.1C29 9 34 7 39.1 8.3c2.5.3 5 .7 7.3 1.5 1.3.4 2.5.9 3.7 1.5.4.2.8.4 1.1.6C56 15 61 17 62 23c1 7-4 13-3 21 1 3-1 7-4 9 8 4 3 13 5 19 0 1 2 2 3 3 0 2-2 4-2.7 6.5-1.3 1.8-2.9 3.3-4.8 4.6-7.4 5-18.7 5.7-27 5.2-2.5-.8-5-1.8-7.5-1.3 2.5 1 4.8 2.2 7 3.3 11.2 5.1 23.9 4.3 34.9-.6 2.8-1.2 5.4-2.7 7.9-4.4C95 74 99 39 80 19z"/>
      <path fill="none" d="M62.9 37.9c2.8 2.7 6.8 2.4 9.8 4.9M64.6 42.4c.4-.8 1.1-1.5 2.1-1.8M64.6 43.9c2.7 1.1 5.5.7 7.6-1.1M65.1 46c-2.5 3-2.2 5.8 1.3 7.5M58.9 54.5c3.2 1.6 5.8 1.6 6.6-1.3M60.1 56.8c2.8 1.4 6.2 1.9 9 1.4M59.8 60.5c2.2.2 4.4-.3 6.3-1.4M60.4 63.3c1.3.4 2.7.2 3.6-.4M63 73.5c2.9 1.7 6.2 2 9.2.9M66.5 42.7c0-.3 0-1.7-1-.3M61.3 37.7c3.2 1.2 7.5 1.8 10.3 1.7"/>
      <g id="lines" fill="none">
        <path d="M56 9.5l9.9-.1M62.3 12.4H73M65.2 16.5C69 15 72 16 75.7 16.4M71.1 19.4h9.3M76.1 21.4h5.1M77.9 23.5l6.1-.1M80 26.5h6M80 28.5h6M53.9 91.4l9.4.4M79.4 65.7l9.9.1M74.2 81.7h4.9M76.1 79.6h4.8M78 77.5l5.7-.1M78 75.4l5.7-.1M90.2 41.5h-6M91.2 46.5h-6.9M91.2 50.5h-4M89.2 58.6l-4.9.1M54 7.6c1.9 0 3.7 0 5.6-.1M74.3 19.4h5.1M76.1 21.4h6.1M77.6 26.5h6.1M79.9 31.3l9.4.4M67.4 81.6l8.8.1M74.2 77.5H79M76 75.4h5.8M87.1 36.5H79M88.1 39.5h-6M88.2 52.5l-6.8.1M87.2 56.6h-4.8M34 93.4l25.3.4"/>
      </g>
    </g>
  </g>
</svg>