<svg xmlns="http://www.w3.org/2000/svg" width="100" height="100">
  <g id="sun" stroke="#000" stroke-miterlimit="10">
    <path fill="#FBB03B" d="M68.4 5.2L43.1 48.3 29.6 94.8l25.3-43.1z"/>
    <path fill="#FBB03B" d="M5 11.9L46 55l49 31.1L54 43z"/>
    <path fill="#FBB03B" d="M41.3 4l3.2 46.8 14.2 43.3-3.2-46.9z"/>
    <path fill="#FBB03B" d="M6.3 57.8l44.8-3.4 42.6-14.2-44.8 3.4z"/>
    <g fill="#FBB03B">
      <path d="M46.6 47.7c-4.4 1-7.3 5.6-6.3 10v.3c.5 4.5-2.6 8.6-7.1 9.2l-.7.2c-4.4 1-7.3 5.6-6.3 10v.3c.5 4.5-2.6 8.6-7.1 9.2l2-.1c4.5-.2 8.1-4.1 7.8-8.6v-.3c-.9-4.5 2.5-8.9 7-9.5l.7-.2c4.5-.2 8-4.1 7.8-8.6v-.3c-.9-4.5 2.5-8.9 7-9.5l1.2.5c4.4-.8 7.5-5.2 6.8-9.7v-.3c-.3-4.5 3-8.5 7.5-8.8l.7-.2c4.4-.8 7.5-5.2 6.8-9.7v-.3c-.3-4.5 3-8.5 7.5-8.8l-2.5.1c-4.5 0-8.7 3.7-8.7 8.3v.3c1 4.5-2.4 8.8-6.9 9.2l-.8.2c-4.5 0-8.3 3.7-8.3 8.3v.3c1 4.5-2.5 8.8-7 9.2l-1.1-.7z"/>
      <path d="M47.5 52.8c-.3 4.5 3.2 8.7 7.6 9h.3c4.4.8 7.4 5.1 6.6 9.5v.7c-.3 4.5 3.2 8.7 7.6 9h.3c4.4.8 7.4 5.1 6.6 9.5l.4-2c1.1-4.4-1.5-9-5.9-10.1l-.3-.1c-4.5-.4-7.7-5-7-9.5v-.7c1.1-4.4-1.5-8.9-5.9-10l-.3-.1c-4.5-.4-7.7-5-7-9.5l.8-1c.5-4.5-2.8-8.8-7.2-9.4l-.3-.1c-4.4-1-7.2-5.4-6.2-9.8v-.7c.5-4.5-2.8-8.8-7.2-9.4l-.3-.1c-4.4-1-7.2-5.4-6.2-9.8l-.6 2.2c-1.3 4.4 1 9.3 5.3 10.6l.3.1c4.5.6 7.5 5.1 6.6 9.5l-.1.9c-1.3 4.4 1.1 9.1 5.4 10.4l.3.1c4.5.6 7.5 5.1 6.6 9.6l-.2 1.2z"/>
      <path d="M46.2 50.3c-3 3.4-2.7 8.8.6 11.9l.2.2c3 3.4 2.8 8.6-.5 11.7l-.4.6c-3 3.4-2.7 8.8.6 11.9l.2.2c3 3.4 2.8 8.6-.5 11.7l1.5-1.3c3.5-2.8 4.2-8.1 1.5-11.6l-.2-.2c-3.3-3.1-3-8.7.2-11.9l.5-.6c3.5-2.8 4.2-8 1.4-11.6L51 61c-3.3-3.1-3-8.7.2-11.9l1.3-.3c3.2-3.2 3.1-8.7-.1-11.9l-.2-.2c-2.9-3.5-2.4-8.7 1-11.6l.4-.6c3.2-3.2 3.1-8.7-.1-11.9l-.2-.2c-2.9-3.5-2.4-8.7 1-11.6l-1.8 1.4c-3.7 2.7-4.8 8-2.2 11.7l.2.2c3.2 3.3 2.9 8.7-.5 11.7l-.6.6c-3.7 2.7-4.6 7.9-2 11.6l.2.2c3.2 3.3 2.9 8.7-.5 11.7l-.9.4z"/>
      <path d="M47.4 46.6c-4.5-.5-8.6 2.9-9.1 7.5l-.1.3c-.9 4.5-5.2 7.3-9.6 6.4h-.7c-4.5-.5-8.6 2.9-9.1 7.5l-.1.3c-.9 4.5-5.2 7.3-9.6 6.4l1.9.5c4.3 1.3 8.9-1.3 10.1-5.6l.1-.3c.5-4.6 5.1-7.6 9.5-6.8h.7c4.3 1.3 8.8-1.3 10-5.7l.1-.3c.5-4.6 5.1-7.6 9.5-6.8l1 .9c4.5.7 8.8-2.5 9.4-7l.1-.3c1.1-4.4 5.5-7.1 9.8-6h.7c4.5.7 8.8-2.5 9.4-7l.1-.3c1.1-4.4 5.5-7.1 9.8-6l-2.2-.7c-4.3-1.4-9.2.8-10.6 5.1l.2.3c-.7 4.5-5.2 7.5-9.6 6.4l-.8-.1c-4.3-1.4-9 .8-10.4 5.1l-.1.3c-.7 4.5-5.2 7.4-9.6 6.4l-.8-.5z"/>
      <path d="M50.1 45.3c-3.1-3.3-8.4-3.6-11.7-.4l-.2.1c-3.6 2.8-8.7 2.1-11.4-1.6l-.6-.4c-3.1-3.3-8.4-3.6-11.7-.4l-.2.2c-3.6 2.8-8.7 2.1-11.4-1.6L4 42.8c2.5 3.8 7.5 5 11.3 2.5l.2-.2c3.4-3.1 8.8-2.3 11.6 1.3l.5.5c2.5 3.8 7.5 4.9 11.3 2.4l.2-.1c3.4-3.1 8.8-2.3 11.6 1.3l.2 1.3c2.9 3.5 8.3 3.9 11.7 1l.2-.2c3.7-2.6 8.8-1.7 11.3 2.1l.5.5c2.9 3.5 8.3 3.9 11.7 1l.2-.2c3.7-2.6 8.8-1.7 11.3 2.1l-1.2-2c-2.3-3.9-7.4-5.6-11.3-3.3l-.1.2c-3.5 2.9-8.8 2.2-11.4-1.5l-.6-.7c-2.3-3.9-7.3-5.4-11.2-3.1l-.2.1c-3.5 2.9-8.8 2.1-11.4-1.6l-.3-.9z"/>
    </g>
    <ellipse cx="50" cy="46" fill="#EFCA70" rx="24.1" ry="23.9"/>
    <path fill="none" d="M31.9 38.8c8.2-3 21.2-.6 15.3 10.9M52.8 39.6c3.6-1.8 7.9-3.7 11.9-3M52.8 49.7c-1-2.9-1-6.7 0-9.4"/>
    <path fill="none" d="M45.7 51.8c.4 1.2-.5 1.6.5 2.5.4-.1 1.3-1 1.6-1.4h.5c.7.3.6 1.4 1.5 1.5h.5c.7 0 1.7-1.5 2.3-1.9 0 0 .5.2.5.1.8.5.6 1 1.8 1.4-.2-1.6-1-3.6-1.9-4.7M42.9 59.1c.1-.4.3-1.5.3-1.6M58.5 58.9c-.6-.3-1.4-1.2-1.5-1.8M48 59.8c1.6 1.6 3.5 1.6 5.3.3M49 64.6c1-.4 2.7-.6 4.1-.6M54.6 41.3c2.5-2.1 6.4-3.1 9.3-1.5M42.6 41.5c-3.2-.9-6.4-2.4-9.4-.1M43.4 43.7C40 42.3 35.9 41 32.6 43M32.6 43.5c3 2.4 7.4 2.1 9.7.3M54.5 42.8c3-1.7 6.6-2.7 9.6-1.1"/>
    <ellipse cx="59.2" cy="42.6" fill="none" rx="1.9" ry="1.7"/>
    <path fill="none" d="M59.3 41.2c-.3.9-.4 2 0 2.9"/>
    <ellipse cx="37.8" cy="43.7" fill="none" rx="1.9" ry="1.7"/>
    <path fill="none" d="M38 42.2c-.3.9-.4 2 0 2.9M43.3 58.2c1.9.7 3.8.4 5.1-.9M51.9 57.3c1.6 1.3 3.4 1.7 5.1.9M48.4 57.3c1.4.8 2.8.8 4-.4"/>
    <path fill="none" stroke-width="1.0474" d="M53.6 43.3c3.7 1.9 8.3.8 10.6-1.3"/>
  </g>
</svg>