<svg xmlns="http://www.w3.org/2000/svg" viewBox="0 0 224.5 283">
  <g fill-rule="evenodd" clip-rule="evenodd">
    <path fill="#D69148" d="M53.7 167.9c1.3-.4 2.6-.8 4-1.2 5.1-.7 10.4.1 15.2-2.6 1.1-.6 2.6-.5 3.6.6 1 1.3.3 2.5-.4 3.6-.4.7-1.1 1.2-1 2.6 4.3-.4 2.3-4.8 4.2-6.5 2.6-1.2 5.5-2 7.9-3.5 1.1-.4 2.3-.6 3.5-.6h2c1.1 0 2.1-.2 3.1-.3 1.4-.2 1.8-1.6 2.6-2.5.6-.6 1.2-1.3 2-1.3 6.3 0 12.6-1.3 18.7 1.6 1.4 1.8 2.2 2.6 2.8 2.7 1.7-1.9 2.6-4.6 5.5-5.2.7.1 1.3.5 1.8 1 4.4 4.3 8.7 8.5 15 9.9 2.2.5 4.3 0 6.4.1 1.5.1 3.5-.6 4.1.9 2.1 4.8 6 9.2 4.3 15.1-3.6 3.3-8.2 3.7-12.7 4.3-1.7.2-3.3-.1-4.3-1.6-.8-3.5 2.1-5.3 3.5-7.7.4-.7.5-1.4 0-2.1-1.6-1.3-3.1-1.3-4.7-.3-.4 1.3.7 1.8 1 2.6 1.1 1.7 1.2 3.5.1 5.3-.7 4.7 2.8 4.1 5.3 3.7 2.8-.5 5.1-.2 7.2 1.5 1.5 1.6 4.3 3 1.3 5.7 1.1-1 2-.7 2.8.3.7 1.9.1 3.5-1.1 4.9-1 .9-2.3 1.3-3.5 1.8-1.8.3-3.6.6-5.4 1.2-1.6.3-3.3.2-4.9-.1-3.9-1.2-7.9-1.1-11.7-.6-8.5 1.1-17 .6-25.5 1-.5-.1-1-.3-1.3-.7-.1-1.7-1.3-2.9-2.2-4.9 15.1-1.4 29.8-2.9 42.4-2.9-13.4-.9-28.8 2.8-44.5 2.3-.4 1.7-3.1 3-4 5.7 3.8-5.8 4-5.8 7.8-2 .5 1.2.1 2.4-.1 3.5-.2.5-.4.9-.7 1.3-.5.6-1 1.1-1.6 1.5l-1.2.6c-.4 2.4-1.1 4.8-1.6 7.3-.6 2.4-2.8 3.5-4.5 4.9-1.5 2.2-.8 4.6-.8 7-.4 1.6-1.4 2.5-3 2.6-.5 0-.9-.1-1.4-.3-.4-.3-.7-.7-.8-1.1-.1-1.4.2-2.8.3-4.1-.5 1.9.2 4.3-1.9 5.9-1.2.2-1.9-.6-2.7-1.4-.2-.3-.4-.6-.5-.9l-.4-.2-.3.4c-1.8 1.8-2.5.2-3.3-1-1-1.8-.9-3.8-1.2-5.7-.7-4.5-1.9-9-1.6-13.6 1.4-2.5 1.5-5.3 1.8-8-.4 2.2 0 4.6-2.1 6.7-2.8-3.2-2.2-6 .1-8.8.9-.9 1-2.5 2.2-3.2 4.2-2.3 3.7-5.6 2-9.1-.4-.9-.8-1.8-1.5-2.4-.4-.6-.5-.4-.4-.3.8.6 1.4 1.3 1.6 2.3 1.9 3.3 2.7 6.4-1.5 8.7-1.1.6-1.2 1.9-1.6 3-2.4 2.9-5 2.6-7.6.3-.2-.4-.4-.9-.5-1.3-.1-.5 0-1 0-1.4.1-.5.3-.9.5-1.3 1.2-6.1-4.6-12-10.8-10.9-3.1.6-6 1.7-9.2 1.6-3.7-.2-6.4-1.5-6.7-5.6.1-.5.2-.9.3-1.4.2-.4.4-.8.7-1.2l.5-.5c.3-.3.7-.6 1-.9.4-.3.7-.5 1.2-.7 1.5-.3 2.9-1 4.1-2 1.5-.8 1.9.8 2.8 1.4 4.2 1.7 9 .8 13 3-.3-.2-.6 0-.8-.3-3.9-2.3-8.8-.7-12.7-3.1-.8-1.2-.9-2.2 0-3.1z"/>
    <path fill="#BB7637" d="M80.4 220.4c.3 2 .7 4 1 6.2 1.3-.9 2.2-1.5 3.1-2.1.3.2.4.5.3.7-.1.2-.3.3-.4.3v.7c.2 1.2 1.2 1.7 2 2.2.8-3.3 1.6-6.6 2.8-11.5v10.6c1 1.4 3.9.7 3.6 3.4-2.6 3.9-2.6 8.2-1.7 12.6 1.1 3.8 2.5 7.5 2.6 11.4 0 3.4.1 6.8.7 10.3.9 4.5-1.3 6.9-5.9 6.9-3.1 0-6.2 0-9.1-1.5-2-4-6.8-2.5-9.8-5.1-4.3-3.6-4.9-8.6-.3-11.9 1.2-.9 2.4-1.7 2.8-2.9-7.2 5.8-13.5 1.3-19.8-2.1-.9-.6-1.5-1.5-2-2.4-.2-.3 0-.9-.7-.8.1.3.2.6.3.8.2.5.2 1 .1 1.6-.4.5-.8.9-1.4.5-5.8-5.2-2.1-11.9-2.8-17.9 1.1-.9 2.5-.4 3.7-.8 6.2-1.7 6.3-1.7 8.2 4.2 1.5-1.2 1-3.8 3.6-4.6 3.1 1.6 2.7 5.8 4.9 8.3 2.2-1.2 3.6-2.9 3.9-5.3.1-.4.3-.8.5-1.2.9-1.2 1.2-2.7 1.8-4.1 1.8-1.6 3.3-3.5 4.9-5.3 1-.7 1.8-1.7 3.1-1.2z"/>
    <path fill="#CC8D4F" d="M77.6 105.2c9.2 3.1 18.4 6.2 27.6 9.2 2.9-1.2 6 .8 8.9-.8.3-.3.6-.6.9-.8.2-.1.4-.1.5-.2.1 0 .3.1.5.1.5.3-.4.2.3.1.2 0 .3-.1.3-.2h-.3s-.3-.2-.4-.2l-.4-.2c-.4-.1-.7-.3-1-.5-.2-.1-.3-.3-.5-.4-.8-.8-1.6-1.5-2.3-2.4-.3-.4-.6-.7-.8-1.2-1.1-1.8-2.4-3.6-3.4-5.4-.9-1.8-1.8-3.8 1-4.9 2.6-.2 3.8 1.6 5 3.4 5.2 7.9 12.4 12.8 21.9 13.9 1.3.2 2.6.6 3.4 1.8.3.4.4 1.1.7 1.2 4.1 1.8 7.1 5.4 11.3 7 2.9 4.6-.8 6.8-3.5 9.3-6.4-.3-12.8-.3-19.2-1.5-1-.1-2-.1-3-.3-.9-.1-1.8-.6-2.7-.7-1.1 0-2.2-.3-3.3-.6-12.8-3.3-25.7-6.6-38.5-10-.5-.8-1.7-1.5-.8-2.7 2-8.9-4.6-7.6-9.7-8.1-.6.1-1.1.5-1.5 1-.4.3-.7.6-1 1-3.5-.5-2.6-2.9-2.1-5.1.5-.4 1.1-.5 1.7-.4.7.3 1.5.4 2.2 0 1.2-.6 2.2-1.4 3.4-1.9 1.6.1 3.3-.3 4.8.5z"/>
    <path fill="#D89853" d="M57.5 235.3c-1-1.9-1.9-3.9-2.7-5.4-3 .2-6 .3-9 .5-1-11.9-2-23.9-3.1-35.8-.4-2.8 1.6-3.6 3.7-4.2.5-.2 1-.3.7-1.1-.8-1-1.6-2.1-1.8-3.4-.1-1.4-.9-2.9.8-4.8 6.1 2.2 12.6-3.3 20.1-.2-2.3 2-4.7.6-7 1.9-.1 0 1 .9.7.3-.1-.3-.1-.4-.1-.4 3.5-1 6.8-.8 9.5 1.9 2.3 2.3 3.2 5 1.2 8-1 .6-1.3-.4-1.9-.7.6.9 1.1 2 1.9 2.7.7 5.6-1.9 10.7-2.9 16-2.9 4.2-2.6 10-5.5 13.9-2.3.1-1.8-1.8-2.8-2.3-1.1-1.9-.5-3.6.3-5.5 1.6-3.8 3.7-7.6 3.5-12 .4-1.2 1.2-2.2 1-3.4.1-.8.7-.4.1-.4-.1 0-.1.6-.1.9 0 .8-.2 1.5-.7 2.2 0 4.2-1.8 7.9-3.2 11.8-.4 1.1-.9 2.2-2.5 1.7-1.7-3.4-2-6.5.5-10 2.5-3.3 2.7-7.7 2.9-11.9.1-1.8-.5-3.7.6-4.6-1.5 5.9.1 13.5-5.1 18.7-2.5-.2-2.1-2.2-3-3.3-.7-1.7-1.2-3.3.7-4.6 2.3-2.2 2.9-4.9 3-8 0-1.9 0-4 1.4-5.6.1-.4.7-.5.6-1.1-.4.2-.2.7-.5.9-1.5 2-1.5 4.3-1.5 6.5 0 2.6-.8 4.8-2.4 6.7-.4.5-.9.8-1.4.8-.7-.5-.7-.1-.5.5-1.9 2 .8 2.9 1.1 4.4.1 1.5 1.2 2.7 1 4.5-1.2 1.8-3.2 2-4.8 2.4 1.6.3 3.3-1.4 5.3-1.4 1.7 1.3 1 3.8 2.5 5.2 1.7 2.4-.1 4-1.3 5.7-.6.9-1.1 1.8-2 2.3.1 0-.1.1-.1.1s.2-.1.3-.2c.8-.6 1.3-1.4 1.9-2.2.9-1.3 1.8-2.5 3.3-.6 2.7 5.1-.3 8.8-2.7 12.6z"/>
    <path fill="#CE813B" d="M204.9 117.2c4.5 6.7 9.1 13.3 13.6 20 .3.4.3.8-.1 1.2-4.8-.1-8.2 3.1-12 5.3-.4.2-.8.4-1.3.6-.7.2-1.4.4-2.1.3-.5-.1-.9-.4-1.2-.8-.7-1-.7-2.3-.9-3.4-1.7-6.8-6.3-12.1-9.3-18.1-4.7-9.6-9.3-19.2-13.5-29-1-2.3-1.7-4.6-2.3-7-.2-.7-.4-1.4-.5-2.1 0-.9-.5-1.8-.8-2.6-.6-2-1.8-3.9-1.2-6.1.6-.8 1.3-1.4 2.4-.9.2.5.6.8.8 1.2 1.1 2.2 1.9 4.6 4.2 5.9 4.2 6.4 8.5 12.9 12.7 19.3 3.7 5.4 7.7 10.8 11.5 16.2z"/>
    <path fill="#C38C59" d="M162.8 239.1c-9.6-4.2-19.2-8.3-28.7-12.5-.5-.4-.5-1-.3-1.5l.6-.9c.3-.3.7-.6 1.1-.9.2-.2.3-.4.3-.7-.1-.3-.2-.5-.4-.7-.3-.2-.5-.4-.7-.7-.4-.4-.7-.9-.9-1.4-.1-.4-.1-.8 0-1.2.5-1 1.4-1.7 2.3-2.3 4.9-3.3 10.1-6.2 14.6-10 .3-.3.7-.6 1.1-.8 2.7-1.4 4.7-3.5 5.9-6.2 1.3-1.7 6.2.9 4.7-4 0-.5.3-.8.6-1.1 2.3-1.4 4.5 1.2 6.9.3.6-.2 1.2-.4 1.9-.4 1.5.2 2.9.8 4.4 1.1 1.6.4 3.2.6 4.6-.5 1-1.7-1.4-3.1 0-5 3.7-.9 5.4 2 7.3 4.4 2.2.8 4.7-1 6.8.9 7 .1 7.2 1.3 10.8-5.6 1.2 1.5 2.3 2.9 3.5 4.4-4.2 1.9-9.1 6.4-12.5 5.4-25.4-7.3-39.1 12.1-58.1 23.7 10.3 4.5 19.3 8.5 28.3 12.5-1.3 1.1-3.3 1.8-4.1 3.7z"/>
    <path fill="#A86934" d="M48.6 248.3c.4-.3.8-.7 1.2-1 1-.7 1.9-.6 2.8 0 7.5 3.8 15 8.8 24-3.5-1.8 10.3-12.3 11.1-8.4 19.4 2.7-.8 3.8 1.4 4.5 4.2 1.9-1.2 3.3-2 5.4-3.3.2 2 .3 3.5.5 5-.4.7-1 1-1.8 1.3-6.1.4-12.2.8-18.1-1.1-4.4-1.4-8.1-.6-11 3-.6.7-1.2 1.3-1.6 2.1-.2.4-.4.8-.6 1.1-.2.4-.5.7-.7 1.1-.1.2-.3.3-.4.5-1.1.8-1.6 2.8-3.6 2 6.3-9.4 7.1-20.1 7.8-30.8z"/>
    <path fill="#070403" d="M101.2 63.6c-2.1 1.7-4.3 3.5-7.2 5.9-.3-2.9-.4-4.8-.6-6.8-.2-4.3-2-8.6.3-12.8 1.3-2 1.7-4.3 2.2-6.6.2-2.2 1-4.1 2.7-5.6 2.6-2.3 5.4-2.1 8.4-1 5.2 3.7 5.3 8.9 3.9 14.4-1.3 2.3-2.9 4.5-4.3 6.9-1.4 2.3-2.8 4.5-5.4 5.6z"/>
    <path fill="#B67C4B" d="M65.6 137c16.9-.9 33.8-1.8 50.6-2.7 1.9.7 3.5-.9 5.3-.6 1.8.3 4 .1 3.9 2.7-.1 2.1-2.1 2.2-3.8 2.2-6.6.1-13.1-.1-19.7 0 6.7-.2 13.5.1 20.2 0 1.8 0 4-.5 3.1 2.7-2.8 2.1-6 1.1-9 1.2-4.1.2-8.2.1-12.2 0-2.2-.1-4.5-1.1-6.1 1.4-1.6.6-3 1.8-4.5 2.6-5.5 2.4-11.4 1.4-17 1.2-7.2-.2-14.5.4-21.7-.7-1.1-.6-1.7-1.4-1.5-2.7 3.7-3.4 8.4-1.2 12.6-2.2 3.4-.8 7.1-.6 10.7-.5 3.4.8 6.9 0 10.3.1-.5-1.2-.8-2.4 1.3-2.7-5.8 1.1-11.8-.6-17.6.9-1.6.2-3-.3-4.3-1.1-.6-.4-1.1-1-.6-1.8z"/>
    <path fill="#BD824D" d="M205.7 189.3c.9 3.3.2 6.5-3.4 6.7-2.4.1-5.4 3.9-7.7-.4-4.1-4-6.2-9.1-7.4-14.6 4-6 4-6.4-.7-11.5-.9-1-1.7-2.1-1.2-3.5.9-2.6 3.2-2.5 5.3-2.8.6-.2 1.3-.3 2-.2.4.1.8.3 1.2.5.9 1.1.4 2.8 1.5 3.9.7 1 .7 2.3 1.2 3.4 1 3.1 2.1 6.2 3.1 9.4.4.3.5.7.4 1.2 1.9 2.6 3.8 5.3 5.7 7.9z"/>
    <path fill="#080506" d="M88.3 9c11.1-6 22.3-13.2 32.9.9.7 1 .5 2.4 1.4 3.4.3 2.2-.2 4-2.6 4.7-.7.2-1.4.2-2.2.2-.5 0-.9-.1-1.4-.1-2.2-.5-3.9-1.8-5.8-2.9-.3-.2-.6-.4-1-.6-.2-.1-.3-.2-.5-.2-.5-.2-1-.3-1.5-.1-.3.1-.7.2-1 .2-.4 0-.7 0-1.1-.1-1-.2-1.9-.4-2.9-.7-1.4-.6-2.6.4-3.9.6-.7 0-1.3-.2-1.9-.5-.8-.4-1.5-.7-2.3-1-1.7-.9-3.3.3-5 .1-.4 0-.9-.1-1.3-.3-.6-.3-1.1-.8-1.4-1.4 0-1.2.7-1.7 1.5-2.2z"/>
    <path fill="#C28B55" d="M132.9 226.4c-4.2 2-8.5 4-12.7 6-2-.5-2.8-1.8-2.7-3.8.6-2.4 3.4-3 4.7-5.6-6.5-5.3-14.7-8.2-20.8-14.1-.3-1.1-1.2-2.2-.1-3.3.9-.5 1.5-1.2 2-2 .6-.7 1-1.6 2.2-1.3.7.1 1.4.2 2 .5 8.1 4.7 15.6 10.4 24.1 14.4 1.1.5 1.9 1.3 2.5 2.3l.3.4c.4.8 1.1 1.1 1.7 1.6.6.6 1.6.9 1 2-.6.6-1.5.4-2 1-.9.4-1.5 1.2-2.2 1.9z"/>
    <path fill="#AD794B" d="M162.8 239.1v-3.5c1.3-.1 2.7-.3 4.1-.4 12.3 2.8 16.3 21.2 8.2 37.9-.6.2-1 .5-1.2 1.1l.1-.1c-1.2.7-.7 3-3.1 2.9-1.3-.4-.1-2.4-1.2-3.1-.2-.3-.1-.5.1-.8.4-.4.7-.8 1-1.2.4-.3.7-.7 1.1-1.1 1-11.6 6.7-24.6-9.1-31.7z"/>
    <path fill="#451C0C" d="M106.3 37.7c-2.3.3-4.7.6-7 .9-3.4-1.3-5.8-4.2-9.1-5.6-3.7-2.8-8.6-1.1-12.5-3.3-1.8-.7-3.6-1.5-5.4-2.2-.2-.2-.4-.4-.7-.5 0-.8-.1-1.6-.1-2.4 2-4.3 2.7-4.5 9.9-3.1.7.1 1.4.1 2 .3 1.9.6 3.9.9 5.8 1.5.4.1.8.2 1.2.4 1.6.8 3.2.9 4.9.3.5-.1.9-.1 1.4-.1 3.6 1.6 8.2 1.1 10.6 5.2 2.7 3.3 1.9 6.1-1 8.6z"/>
    <path fill="#A16A3A" d="M70.5 138.9c7.9-.4 15.9-.9 23.8-1.3.1.6.1 1.1.2 1.7-2.2.4-4.4.7-7.4 1.2 2.3.4 4 .7 5.7 1v1.4H77.2c-7.9-.4-15.8-.7-23.6 1.1.3.7.7 1.3 1 2 2.3 2.4 5.9-.5 8.2 2.1 0 1.5-1 2.1-2.1 2.7-2.7 1.2-5.8.1-8.6 1.3-.5.2-.9.2-1.4 0-1-.4-2.1-.8-3.1-1.2-2.9-2.7-6.9-.6-10.2-1.8-.6-4.6 3.7-3.9 5.6-5.5 1.3-1.1 3.5-.3 4.8-2-1-1.9-3.8-.7-4.6-2.8-.2-.7-.1-1.4.5-1.9.3-.1.5 0 .8.1.4-.2.9-.2 1.3 0 1.6 1.1 3.2.8 4.9.2 5 0 10-.1 15-.1.3.4.7.7 1 1.1-.9 2.9-3.5 1.2-5.2 2.2 4.2-1.2 8.6-.6 12.9-.6 2.5.6 5.1.9 7.6 1-1.3-.3-2.7.1-4-.4-2.5-1-5.2-.2-7.5-1.5z"/>
    <path fill="#89502A" d="M76.5 269.1c.7 0 1.4 0 2-.1 16.7 6.2 15-4.6 13.9-14.9.5-.7.9-1.4 1.9-1.2 1.4.6 2.1 1.7 1.9 3-1.1 6.2 1.2 12.2.8 18.3-.7 2.6-2.8 3.6-5.1 4.1-4.6-2.8-9.7-3.6-14.9-4.2-2.3-.2-4.7-.3-4.9 3.2-.2 2.6-3 2.2-4.4 3.3H47.9c-.4-.9.2-1.5.7-2.2.4-.5.7-1 1.1-1.5 1.2-1.1 2.5-.4 3.7-.1 3 .6 5.7.3 6.9-2.9.7-1.8 2.4-2.1 3.9-2.8 3.7-1.5 8.1-1.3 12.3-2z"/>
    <path fill="#170C09" d="M132.1 26.7c3.5 2.6 8.4 4.3 5.8 10.3-.3.2-.7.4-1 .6-.8.3-1.6.3-2.4.2-.4-.1-.8-.2-1.1-.4-.4.1-.4-1.1-1-.3-.3.3-.5.6-.9.8-1 .6-2 .5-3.1 0-.6-.3-1.1-.8-1.5-1.3-1.2-2.3-3.4-1.5-5.3-1.9-2.1-.4-4.2-.8-6.1-2-.6-.4-1.1-.9-1.5-1.5-1.1-1.9-2.3-3.9-.2-6 2.9-1.1 5-3.1 7-5.4 1.9-1.3 3.7-1.2 5.1.6 1.9 2.4 4.3 4.1 6.2 6.3z"/>
    <path fill="#C4834E" d="M133 36.8c.3.1.7.2 1 .3 1 .2 2.1.2 3.1 0 .3-.1.6-.2.9-.1 5.9 3.4 12.3 6.2 17.5 10.5 4.5 3.7 7.7 9.2 11.5 13.8.3 1.4 1.8 2.4 1.2 4-1.9 1.3-3-.3-4.1-1.3-3.3-3.1-7-5.8-9.6-9.7-1.9-2.8-5.3-3.6-7.9-5.6-1.3-1.3-2.9-2.1-4.8-3.4 1.2 2.5 3.1 3.4 4.8 4.6 1.2 1.1 2.3 2.3 1.9 4.2-1.9 1.9-4.2.2-6.2.8-3.3-1.2-6.2-2.3-5.9-7.1.1-1.9-2.4-4.1-3.6-6.2-.9-1.5-2.3-3-.4-4.8 0-.4.3-.4.6 0z"/>
    <path fill="#BE8147" d="M50.7 152.1c.4-.1.7-.2 1.1-.3 2.7-1.7 4.6.5 6.9 1.2 1.9.6 3.2 2.4 5.1 2.7-1-.5-2.3-.9-2.3-2.6 2.4-1.8 4.3.2 6.3.8 1.7.9 3.6 1.1 5.4 1.6.8.1 1.5 0 2.3.1 1.8.4 3.5.2 5.2-.6 3.5-1.6 7.3-1.6 11.1-1.2 3.9.5 5.4 3 4.5 7.3l-3 .9c-.6-.7-1.2-.6-1.8 0-1.4 0-2.7.1-4.1.1-3 1.4-6.2 1.7-9.3 2.5-1.6-.2-2.9-.9-3.6-2.4v-.3c-1.1-.8-2.6.2-3.7-.8-6.8-3.1-13.4-6.1-20.1-9z"/>
    <path fill="#C87436" d="M17.9 105.3c-3-8.9-6.1-17.8-9.1-26.7.3-1.9-2.8-5.3 2.2-5.3v.1c.4.6.3 1.5 1 2 3.7 9.9 7.3 19.8 11 29.7.4 1.7 1.4 3.3 1.5 5.2.2 2.5-.9 4.1-3.6 4v-.1c-.8-2.2-.4-4.9-2.1-6.8-.5-.7-.3-1.5-.9-2.1z"/>
    <path fill="#6B3B1A" d="M194.6 167.7c-3.6-.6-1.3-2.4-.8-3.8-.6-2.4 1.5-3.9 1.9-6-4.5-1.8-4-6.5-6.7-9.8 6.5 0 9.5-3.5 11.5-8.4.7-.3 1.4-.2 1.9.4.1 1.3.2 2.5.3 3.8.4 1.5.9 3.1.1 4.6-.2.6-.6 1.1-.3 2.1 2.6 0 4.2-2 6.2-3.2 3.8-2.2 6.6-6.6 11.9-5.8-5.7 5.2-11.4 10.5-17.1 15.7-.6.5-1.1 1.2-1.7 1.8-2.8 2.6-3.8 6.6-7.2 8.6z"/>
    <path fill="#9E5629" d="M106.3 29.7c-3.6-1.6-7.3-3.2-10.9-4.8-1.9-2.1-3.9-.9-5.9-.3-2.1-.5-4.2-1.1-6.3-1.6.7-1.3 2.1-.9 3.5-1.4-2.1.4-3.9.2-5.4 1.3-3.3.5-7.3-2.6-9.9 1.8-1.3-2.3-2.7-4.7-4-7 3.9.2 7.4-2 11.4-1.8 3.8.9 7.6.7 11.4.1.6-.3 1.3-.5 2-.6 1.9.1 2.8 1.4 3.7 2.9 1.8 2.1 4.2 1.2 6.4 1.6 2.2.4 5.6-.7 5.9 3.3-1.9 1.2-4.1 1.1-6.2 1.3 2-.1 4-.2 5.8-.9 2.7-3.5 3.6-3.5 5.9-.5-2 2.7-3.6 5.9-7.4 6.6z"/>
    <path fill="#BE7B48" d="M43.7 136.8c0 .7-.1 1.3-.1 2-.8 1.5-2.2 1-3.3 1.2 2 .4 4.4-.8 6.3 1.1-.1 2-1.6 1.8-2.9 1.9-2.5.1.5.9-.2 1.2-1.9 1.1-3.7 2.3-5.6 3.5 2.6 3.7 8-2.3 9.6 3.2-18.2 1.4-16.3-14.9-21.9-24.6.8-1.8 1.4-3.7 3.1-5 4 6.1 3.9 16.2 15 15.5z"/>
    <path fill="#A46D48" d="M96.2 275.3c-.9-7.3-1.8-14.7-2.7-22-1.5-3.4-1.4-7-1.5-10.5-.1-1.2.2-2.3 1.1-3.3 3.5-.2 2.6 2.7 3 4.5 1.2 5.9 1.7 12 2.2 18 1.9 4.7 11.7 3 9.6 10.1-1.1 3.6-6.2 5.9-9.5 8.8-1.6-.5-2.5-1.7-2.7-3.3 0-.6.2-1.2.5-1.7-.1-.3-.1-.4 0-.6z"/>
    <path fill="#C2884D" d="M98.2 262c-1.5-7.6-3.1-15.2-4.6-22.7-.6-2.7 1.6-3.1 3.2-3.9 1.3-.4 2.7-.4 4.1-.7h1.3c2 .6 3.1-1 4.5-1.9.4-.3.8-.5 1.2-.6.7-.3 1.4-.4 2.1-.1.5.3.8.6 1 1.1.8 2.2.3 4-1.8 5.3-9.9 4.8-11.7 13.6-11 23.5z"/>
    <path fill="#B06D34" d="M67.5 280.9c1.1-1.1 2.3-2.1 3.7-3.4-.7-.5-1.4-1.1-3.1-2.6 8.9-2.8 16.4-3.6 23.1 3.2 1.3 1.3.5 2.1-.7 2.7-7.7 0-15.3.1-23 .1z"/>
    <path fill="#E2934F" d="M91.3 31.7c2.6 2.3 5.3 4.6 7.9 6.9l-2.1 4.8c-1.6 3.3-5 1-7.3 2.3h-.7c-7.5.4-7.5-4.8-7.5-10 3.1-1.5 7.1-1.2 9.7-4z"/>
    <path fill="#6D381A" d="M95.5 18.6c-1-.9-2-1.9-3-2.8-2.2-.4-3.6-1.4-3.2-3.9 2 0 4.1-.1 6.1-.1v.6c.3 1.1.6 2.3 2.2 1.5.3-.3.6-.4 1-.4 1.6-.3 3.2-.5 4.8-.8v.6c.5 1 .3 3.2 2.3 1 .2-.4.5-.6.8-.8.3.1.6.1 1 .2 2-.4 3.1 1.2 4.4 2.2 1.4 1 2.6 1.8 4.3.8h1c.7.5 1.4.6 2.1 0 .9-1.4 1.8-2.7 2.8-4.1-.3-.5-.1-.9.4-1 .1 7 7.3 9.4 9.7 14.9-4.7.2-4.8-8.2-10.7-5.8-8.9 1.7-17.5.4-26-2.1z"/>
    <path fill="#CB9161" d="M115.2 113.3v.9c-3.4 2.3-4.8-.8-6.6-2.6-1.3-1.3-1.5-3.6-3.5-4.4-5.8-13-6.3-26.3-2-39.8.3-.3.7-.4 1.2-.2.3.3.5.7.6 1.2 0 1.1.1 2.3.3 3.4.1.5.1 1 0 1.4-1.5 8.9-.2 17.7 1.4 26.4.6 3.4 3.6 5.8 5.6 8.6.8 1.3 1.8 2.3 3 3l-.1-.1c.3.3.5.7.5 1.1.1.5 0 .8-.4 1.1z"/>
    <path fill="#9E6034" d="M63.5 272.2c-2 7.5-8.3 6.3-13.8 6.9-.7.6-1.3 1.2-2 1.8H36.2c2.1-.9 3.3-1.4 4.5-1.9 1-1 2-1.9 3.1-2.9 2.8-.8 4.5-3.2 6.8-4.6 4.5-3 8.7-2.7 12.9.7z"/>
    <path fill="#E6C07E" d="M74.4 162c1.1.6 2.1 1.3 3.2 1.9.6.5 1.5.2 1.9 1 .1 2 .3 3.9.4 6.8-2.3.4-6 2-7.1 1-4-3.9 3.4-3.8 3-8-6 1.9-12 3.9-18.2 2 5.6-1.6 11.2-3.1 16.8-4.7z"/>
    <path fill="#784621" d="M125 140.9c-7.8-4.7-16.4-.1-28-3.4h27.7c0-.6 0-1.3.1-1.9-2.9-.4-5.7-.9-8.6-1.3.9-1.1 1.9-2.2 2.8-3.3 1-.3 2.1-.6 3.1-.8.2.2.4.5.5.8.1.3.4.4.7.4.3-.1.5-.2.8-.3 1 .1 1.9.1 2.9.2 1.2 1 1.5 2.3 1.6 3.7.3 1.6-.2 3.2-.1 4.8-.1 1.8.1 3.6.1 5.4-.2 1.5-.3 3-1.8 3.8-.5 0-.9-.2-1.3-.5-.5-.4-.9-1-1.4-1.3-.3-.2-.6-.5-.9-.8-.4-.5-.5-1.1-.4-1.8.5-.9.8-1.9 1.4-2.7.3-.3.6-.6.8-1z"/>
    <path fill="#BC8A62" d="M47.7 191.6c-1.7 1-3.3 2-5 3-2.1-11.2-5.4-23 10.9-26.7 0 .9 0 1.9-.1 2.8h-.1c-.7 0-1.3.1-2 .1-1.4 1.2-3.4 1-4.9 2-.4.3-.7.7-1 1-.4.3-.7.6-1 1-2 4.4.4 8.1 1.9 11.9.7.9 1.4 1.9 2.1 2.8-.6 1.2-1.9.3-2.8.8 1.3-.1 2.2-.2 2 1.3z"/>
    <path fill="#CB844D" d="M11 73.3c-.7 1.8-1.4 3.5-2.2 5.3C6.2 71.9 3.6 65.1 1 58.3c1.2-.5 2.4-.9 3.7-1.4 2.1 5.5 4.2 11 6.3 16.4z"/>
    <path fill="#D28545" d="M220.5 141.7c-6.7 4-13.3 8.1-20.5 12.4-1.2-4.3-.3-5.9 2.6-6.3.3-.5.8-.8 1.3-1.1l1.5-.9c.7-.5 1.4-.9 2.1-1.3 3.6-2.1 7.5-3.6 10.7-6.4.1-.3.1-.6.2-.9.8 1.5 1.5 3 2.1 4.5z"/>
    <path fill="#A16239" d="M91.3 31.7c-1.9 4.5-5.2 5.8-9.7 4.1-1.3-2-2.7-4-4-6.1 4.6.7 9.2 1.4 13.7 2z"/>
    <path fill="#9A7A6B" d="M169.7 274c.5.7 1 1.5 1.7 2.4.8-.7 1.7-1.5 2.6-2.2-2.7 11.2-11.3 5.3-18 7 2.6-8 12.3 1.3 13.7-7.2z"/>
    <path fill="#C99E7B" d="M109.3 238.4l.9-6.3c1.6-3.6 4.4-4.4 8-3.7.7 1.3 1.3 2.7 2 4-3.7 2-7.3 4-10.9 6z"/>
    <path fill="#C68B55" d="M20.8 114.3c4-2.3 2.3-5.9 2.1-9.2 1.6 4 3.2 8.1 4.8 12.1-.3.6-.3 1.3-.6 1.8-1.2 1-.8 3.7-3.4 3.2-.9-2.7-1.9-5.3-2.9-7.9z"/>
    <path fill="#D78C44" d="M194.6 167.7c2.6-2.7 1.5-8.5 7.2-8.6-1.8 3.9-3.6 7.8-5.3 11.6-.7-.9-1.3-2-1.9-3z"/>
    <path fill="#CE703D" d="M78.2 16.8c-3.6.6-6.9 4.1-10.7.9 0-.5.1-1.1.1-1.6.8-1.1 1.9-1.9 2.8-2.8.8-.5 1.7-.8 2.6-1 2.6 0 4.8.7 5.9 3.3 0 .5-.2.9-.7 1.2z"/>
    <path fill="#82502A" d="M105.1 107.2c3.4 2.3 6.8 4.6 10.1 7-3.2 4.4-6.6.2-9.9.3.5-.2 1.1-.4 1.6-.5-.5-1.4.5-3.1-.7-4.5-.4-.8-.8-1.5-1.1-2.3z"/>
    <path fill="#9E5629" d="M78.5 15.9l-6-3c-.4-.2-.5-.4-.4-.7.1-.2.2-.4.3-.4 2.7-.2 5.4-.4 8-.6 4.6 1 5.1 1.6 4.9 6-2.3-.2-4.7-.1-6.8-1.3z"/>
    <path fill="#783716" d="M78.5 15.9c2.2.1 4.3.2 8 .4-2.6-2.3-4.3-3.7-5.9-5.1.4-.2.7-.3 1.1-.5 4.5.1 7.3 2.9 9.8 6.2-4.4 0-8.8-.1-13.1-.1-.1-.3 0-.6.1-.9z"/>
    <path fill="#BD926F" d="M167.7 65.9c-.2-1.5-.5-3.1-.7-4.6 3 4.3 6 8.7 8.9 13-.6.4-1.2.7-1.9 1.1-4.1-.9-4.3-5.1-6.6-7.5-.2-.7-.2-1.4.3-2z"/>
    <path fill="#CA9062" d="M91.4 16.9c-3.3-2.1-6.5-4.1-9.8-6.2 2.2-.6 4.5-1.2 6.7-1.8-.3.6-.5 1.3-.8 1.9.3.4.6.6 1.1.8.3.1.5.1.8.2 1.1 1.3 2.1 2.6 3.2 3.9-.5.5-.9.8-1.2 1.2z"/>
    <path fill="#372020" d="M90.5 280.8c.2-.9.5-1.8.7-2.7 1.7-1 3.3-1.9 5-2.8v-.1c.3.1.4.3.4.5s-.1.4-.2.4c.6 1.6 1.3 3.1 1.9 4.7h-7.8z"/>
    <path fill="#885C40" d="M204.9 117.2c-3.8-5.5-7.5-11-11.3-16.5 2.7 3.5 5.5 7.1 8.2 10.6.1.2.2.3.3.5.3.4.5.9.8 1.3 0 .3.1.5.4.7.6 1.2 1.1 2.3 1.6 3.4z"/>
    <path fill="#AD6222" d="M23.7 122.2c1-1.4 2.1-2.7 3.1-4.1 1.5.5 1.2 2.1 1.9 3v.1c-.2 2.2.3 4.8-3.1 5-.4-.7-.7-1.3-1.1-2-.2-.3-.3-.6-.5-1 0-.3-.2-.7-.3-1z"/>
    <path fill="#CAAC8B" d="M79.6 118.3c.3.9.6 1.8.8 2.7-3.5-.3-6.9-.5-10.4-.8v-1.9h9.6z"/>
    <path fill="#A08078" d="M95.6 49.7c-4.8 3.6-1.4 8.6-2.3 12.9-.7-3.9-1.4-7.9-2.1-11.8 0-.3.1-.5.1-.8.3-1.8 1.3-3 3.1-2.8 1.5.1 1.5 1.4 1.2 2.5z"/>
    <path fill="#AD8A69" d="M77.6 105.2c-1.7.3-3.4.7-5.2 1-1 .6-2.2.6-3.1 1.4-.7.1-1.4.2-1.9-.4-.7 0-1.3 0-2-.1 3.6-4 7.8-3.9 12.2-1.9zM65.5 107.2l2.1 5.1c-.6 1.1-1.2 2.2-3.5 6.5.7-6.1 1.1-8.9 1.4-11.6z"/>
    <path fill="#AB866D" d="M103.9 67.5h-.8c-.6-1.3-1.3-2.6-1.9-3.9 1.4-2 2.8-3.9 4.2-5.9 1.9 2.5 1.4 6-1.5 9.8z"/>
    <path fill="#BD926F" d="M180.9 81.4c-3.1-.8-4.3-2.8-4.2-5.9 1.4 2 2.8 3.9 4.2 5.9z"/>
    <path fill="#C68B55" d="M18.7 107.3c.7 2.3 1.4 4.6 2.1 6.8-.7-2.2-1.4-4.5-2.1-6.8z"/>
    <path fill="#C3A795" d="M72.5 11.8v1.1c-.7.3-1.5.7-2.2 1-.8.9-1.7.8-2.6.1 1.6-.7 3.2-1.4 4.8-2.2z"/>
    <path fill="#653424" d="M67.7 14c.9 0 1.7-.1 2.6-.1 1.4 3.6-1.9 1.2-2.7 2.1 0-.7.1-1.3.1-2z"/>
    <path fill="#CC8D4F" d="M106.2 109.5c.2 1.5.5 3 .7 4.5-.2-1.5-.5-3-.7-4.5z"/>
    <path fill="#E2934F" d="M89.9 49.6c-.3-1.2-.5-2.5-.8-3.7.2-.1.3-.2.5-.3 2.6.4 2.3 1.9 1.5 3.6-.3.4-.7.5-1.2.4z"/>
    <path fill="#BE7B48" d="M50.6 137.1c-1.6-.1-3.2-.1-4.9-.2 1.7.1 3.3.1 4.9.2zM28.8 121.1c-.6-1-1.3-2-1.9-3l.9-.9c.3 1.3.6 2.6 1 3.9z"/>
    <path fill="#D69148" d="M70.7 160.9c1.2.3 2.5.5 3.7.8-1.3-.3-2.5-.5-3.7-.8z"/>
    <path fill="#170C09" d="M122.4 11.8c-.1.3-.3.7-.4 1-.3-1-.5-2-.8-3 .4.7.8 1.4 1.2 2z"/>
    <path fill="#8B5A3F" d="M132.9 226.4c.7-.7 1.5-1.3 2.2-2-.3.7-.7 1.5-1 2.2-.4-.1-.8-.1-1.2-.2z"/>
    <path fill="#C68B55" d="M17.9 105.3c.3.7.5 1.4.8 2-.2-.7-.5-1.3-.8-2z"/>
    <path fill="#CB844D" d="M12 75.4c-.3-.7-.6-1.3-1-2 .3.7.7 1.3 1 2z"/>
    <path fill="#D78C44" d="M200 181.4c-.1-.4-.3-.8-.4-1.2.1.4.2.8.4 1.2z"/>
    <path fill="#9A7A6B" d="M171.8 271l-1.1 1.1c.4-.4.8-.7 1.1-1.1z"/>
    <path fill="#9A7A6B" d="M170.8 272c-.3.4-.7.8-1 1.2.3-.4.7-.8 1-1.2zM173.9 274.3c.4-.4.8-.7 1.2-1.1-.4.3-.8.7-1.2 1.1z"/>
    <path fill="#CE813B" d="M203.4 113.9c-.3-.1-.5-.3-.4-.7.3.1.4.4.4.7zM202.2 111.9c-.3-.1-.4-.2-.3-.5l.3.2v.3z"/>
    <path fill="#AD8A69" d="M67.5 112.3l1-1-1 1zM68.5 111.3c.5-.3 1-.7 1.5-1-.5.3-1 .6-1.5 1z"/>
    <path fill="#BD926F" d="M176.7 75.5c-.3-.4-.6-.8-.8-1.2.2.4.5.8.8 1.2z"/>
    <path fill="#A08078" d="M91.2 50.8c-.4-.4-.9-.8-1.3-1.2.1-.1.2-.2.4-.3.7-.1 1.2.2 1.3.9-.1.2-.2.4-.4.6z"/>
    <path fill="#9E5629" d="M71.6 27.1c.2.2.5.3.7.5-.3-.2-.5-.4-.7-.5z"/>
    <path fill="#BE7B48" d="M45.8 136.9h-1.3 1.3z"/>
    <path fill="#C68B55" d="M24.1 123.2c.2.3.4.6.5 1-.2-.3-.3-.7-.5-1z"/>
    <path fill="#C77F40" d="M119.2 159.9c-7-2.5-13.9-4.5-20.9 0-2.6-2.2-3.6-5.1-3.7-8.5.2-.5.5-.9.9-1.2 6.2-.9 12.4-3.3 18.6 0 .3.3.6.6.8 1 .2.4.2.9.4 1.3.3-.8 0-1.7.5-2.4 3.5-2.5 6.8-2.2 9.9.7 1 1.5 2.8 2.9 1.4 5.1-1.7 2-3.3 3.9-5 5.9-1.8.8-1.8-1.5-2.9-1.9z"/>
    <path fill="#A4602C" d="M104.2 200.5c-7.6-7.7-5.5 5-10.3 4 2.9-4.6 6-9.4 11.5-18-2.2 5.7-2.7 7.2-3.6 9.3 16.2-1.5 32-3 48.3-4.5-.2-1.2.1.4.5 2.7-15.6 1-30.9 1.9-46.4 2.9.3 1.2.7 2.4 1 3.6-.3.7-.7.6-1 0z"/>
    <path fill="#915626" d="M95.2 152.2c1 2.6 2.1 5.2 3.1 7.7 0 .6-.1 1.3-.1 2.5-.9-.7-1.4-1.1-1.9-1.6-3.1-10.6-10.1-5.3-16.3-4.1-1.8.3-3.7.1-5.6.1-.6-.5-1.2-.6-1.9 0-1.7-.6-3.4-1.2-5.1-1.7-.2-1.2-2.2-1.1-1.8-3 .8-1.1 2.5-1.8 3.7-3.1 3.4-.8 6.8-.9 9.9.5.6 2.3-.8 2.8-2.2 3.3 2.4-.3 4.7-.8 7.1-.7-.5-.6-1.6-.6-1.6-1.6 5.4-4.3 11.1-3.5 12.7 1.7z"/>
    <path fill="#A36536" d="M46.6 186.7c-3.3-3.5-5.6-7.2-1.9-11.9 1.2 10.5 8.3 5.4 13.1 4.5 6-1.1 9.9.9 13 5.7 1.6 2.6 3.3 5.3-.3 7.7.1-10.9-6.4-10.7-14.4-9.4 2.7-.8 5.4-1.5 10.5-2.9-8.3.8-14.1 1.4-20.4 2 .2 1.3.3 2.8.4 4.3z"/>
    <path fill="#A86932" d="M66.5 210.5c1.3-5.3 2.6-10.6 4-15.9l6.9.9.1.1c-.5 2.5-.9 5-1.4 7.5.3.1.6.2 1 .2.7-2.4 1.5-4.8 2.2-7.2.3.1.6.2.9.2-.6 3.1-1.3 6.1-1.9 9.2-.5.5-.9 1-1.3 1.5-1 1.4-2 2-3.4.3-.9 2.2-.6 5-3.2 6.3-.5 0-.9-.2-1.3-.5-.7-4.4.9-8.6 1.4-12.9 0-.7-1.1-.3-.4-.3.2 0 .4.1.3.2-1.5 3.3.7 7.7-3.2 10.2-.2.3-.4.3-.7.2z"/>
    <path fill="#AE6D2F" d="M158.8 181.6c-1.5-4.5-3-9-4.7-14.2-11 2.8-19.3-2-25.9-10.6.3-.8.8-1.2 1.7-1.2 1.2.2 2 1 2.9 1.8 7.4 6.4 15.5 9.1 24.9 4.5.3-.1.6-.2 1-.2.3 0 .7 0 1.1.2 1.4 1.1 1.1 2.6.1 3.8-2.5 2.7-1.5 5.3-.3 8.2 1.1 2.5 2.6 5.1.7 7.9-.7.2-1.1.2-1.5-.2z"/>
    <path fill="#8D5A33" d="M95.2 199.4l-5.7 7.5c1.9-5-6.9-11.5 1.8-14.8-.6 1.5-1.3 3-1.9 4.6 1.7 1.4 5.5-1.5 5.8 2.7z"/>
    <path fill="#793F25" d="M170.9 195.6c-2.7-.3-5.3-.6-8-.9-1.8.6-3.5.5-5-.7-1.3-1.8-2.6-3.5-3.9-5.3l.5-.5c3.4-.5 3.8-4.7 6.9-5.7 3 2.4.3 4.9.4 7.7 3.9.2 7.1 1.8 9.1 5.4z"/>
    <path fill="#80563F" d="M144.1 200.4c-12.5 1.1-24.9 2.1-37.4 3.2-.5-.3-1-.5-1.5-.8-.4-.6-.3-1.1.3-1.5 12.8-.3 25.7-.6 38.6-.9z"/>
    <path fill="#793D29" d="M158.8 181.6c.4 0 .7.1 1.1.1.4 2.2-1.3 2.8-2.7 3.5-1.6.8-2.6 2-3.3 3.5l.1-.1c-3-4.8-12.1 3.8-12.8-5.9.9-.3 1.3.1 1.2 1 6.2 5.3 11-.9 16.4-2.1z"/>
    <path fill="#A86D34" d="M81.6 183.7c4 5.8 1.2 9.4-4.1 12l-.1-.1c-.3-1.3-.6-2.5-.9-4 5-.8 6.2-3.6 4.1-7.9.3-.6.7-.6 1 0z"/>
    <path fill="#774230" d="M101.3 205.5c.4 1 .7 2 1.1 3.1-.4 2.6 2 6-2.3 7.4-1.4-.2-1.4-1.4-1.6-2.4-.4-2.1-1.5-4.3 2.1-5.3-1.8-.4-3.1-.7-4.4-1.1 0-.6.1-1.1.1-1.7h5z"/>
    <path fill="#80544E" d="M92.3 230.1c-.3-1.6-4.4 1.1-3-2.6.3.3.6.3 1 .1 1-.8 2-1.7 3.1-2.5-.7-1.5-1.1-2.8 1.3-2.8 2.6 1.7 3.4 4 1.8 6.7-.8 1.5-2.2 3-4.2 1.1z"/>
    <path fill="#783B24" d="M76.6 205.5c.6 0 1.1.1 1.7.1l2.1 14.7c-.6.7-1.2 1.3-1.9 2-3-4-2.8-8.6-2.4-13.2.2-.8.3-1.5.1-2.3-.2-.4-.1-.9.4-1.3z"/>
    <path fill="#815435" d="M94.6 222.6c-.4.8-.8 1.7-1.3 2.5v-7.6c1.5.8 3-1.6 4.5-.1 1.2 3.1.5 5.1-3.2 5.2z"/>
    <path fill="#A76424" d="M99.5 178.7c-4.7-.3-9.5-.6-14.2-.9v-.5h14.1c.1.4.1.9.1 1.4z"/>
    <path fill="#A86A31" d="M85.4 193.6c-.9 4.9-1.8 9.8-2.6 14.7-.6-.1-1.2-.3-1.8-.4 1.4-4.7 2.9-9.5 4.4-14.3z"/>
    <path fill="#C38C59" d="M157.9 193.9c1.7.2 3.3.5 5 .7-.4 1.3.6 3-1.5 4.3-1.2.2-2.9.8-4.5-.4.3-1.6.7-3.1 1-4.6z"/>
    <path fill="#7A462D" d="M156.9 198.4c3.5 1.1 4.9-1.1 6-3.8.8 1.8 1.7 3.6 2.6 5.5-2.6-.2-5-.3-7.4-.4l-4.2-.3c1-.3 2-.6 3-1z"/>
    <path fill="#9C5A24" d="M87.6 166.1c5.5 1.2 10.5 2.3 15.5 3.4-5.4.9-10.4.1-15.5-3.4z"/>
    <path fill="#9E602E" d="M141 177.8c-1.1-1-2.2-1.9-4.4-3.9 4.4.3 8.1-4.6 10.3 1.9l-.6.3c-1.7 0-3.5-.2-4.8 1.3-.1.1-.3.3-.5.4z"/>
    <path fill="#95592A" d="M79.5 164.9c-.6-.3-1.3-.7-1.9-1 3.3-.7 6.5-1.3 9.8-2-2.7 1-5.3 2-7.9 3z"/>
    <path fill="#7F4723" d="M75.3 189.3c-1-3.6-2.1-7.2-3.2-11.2 5.1 2.9 3.5 7.2 3.2 11.2z"/>
    <path fill="#491C16" d="M95.2 199.4c-1.9-.9-3.8-1.8-5.8-2.8 2.4-.7 4.9-1.4 8.4-2.4-1.1 2.3-1.9 3.8-2.6 5.2z"/>
    <path fill="#A8682D" d="M53.6 170.7c4.7.9 9.4 1.9 14.1 2.8.8 0 1.2.4 1.4 1.2-5.2-1.3-10.4-2.6-15.5-4-.1.1 0 0 0 0z"/>
    <path fill="#A36536" d="M70.5 194.7l-5.1-6.9 1.5-.9c1.2 1.9 2.4 3.8 3.6 5.8v2z"/>
    <path fill="#9E602E" d="M142.3 183.8c-.4-.3-.8-.7-1.2-1 0-1.7-.1-3.4-.1-5 1.8-.5 3.7-1 5.5-1.2.2.1.4.2.5.4-1.5 2.2-3.1 4.5-4.7 6.8z"/>
    <path fill="#A35826" d="M81.6 183.7h-1.1c-2-2.2-3.9-4.5-5.9-6.7.3-.3.6-.5 1-.8l6 7.5z"/>
    <path fill="#48201E" d="M97.3 217.5h-4l5.1-3.9c.3.6.6 1.3.9 1.9.2 1.6-.4 2.3-2 2z"/>
    <path fill="#A35A27" d="M85.4 193.7c1.3-2.3 2.7-4.7 4-7 .4.3.9.6 1.3.9-1.7 2-3.5 4-5.3 6.1z"/>
    <path fill="#9D5D28" d="M119.2 159.9c1 .6 2 1.3 3 1.9.2.8.4 1.5.6 2.3l-3.6-4.2z"/>
    <path fill="#E6C07E" d="M69.1 174.7c-.5-.4-.9-.8-1.4-1.2.7-.7 1.5-1.4 2.2-2 .4.5 1.1 1.3 1 1.4-.5.7-1.2 1.2-1.8 1.8z"/>
    <path fill="#602B02" d="M129.4 155.9l-1.2.9c-.3-.3-.7-.6-1-.9-.7-1.3-1.4-2.6-2.2-3.9-.2-.5-.1-.9.2-1.2.4-.2.9-.2 1.4-.1.4.2.8.4 1.2.8 1.1 1.2 2.1 2.5 1.6 4.4z"/>
    <path fill="#B15A1E" d="M113.2 186.7c-.5 1.8-1.1 3.6-.1.2-2 2.9-.9 1.3.1-.2z"/>
    <path fill="#A36536" d="M46.7 172.8c1.6-.7 3.3-1.3 4.9-2-1.7.7-3.3 1.4-4.9 2z"/>
    <path fill="#A76424" d="M105.7 179.3c-1.1.1-2.3.2-8.5.8 6.1-1.5 7.2-1.7 8.3-2 .1.4.1.8.2 1.2z"/>
    <path fill="#572B19" d="M86.5 228.4c-.9-.1-1.8-.2-2.7-.2.2-.7.4-1.3.7-2 .6.7 1.3 1.4 2 2.2z"/>
    <path fill="#915626" d="M91.5 161.8c.6-.6 1.2-1.1 1.8-1.7 0 .6 0 1.1.1 1.7h-1.9z"/>
    <path fill="#854729" d="M105.4 201.3l-.3 1.5c-.6.3-1.3.5-1.9.8.3-1 .6-2 1-3 .3 0 .7 0 1 .1.1.1.2.3.2.6z"/>
    <path fill="#774230" d="M103.3 203.5l-2 2 2-2z"/>
    <path fill="#5C2322" d="M84.4 225.4c0-.3.1-.6.1-1 .5-.2 1-.5 1.6-.7.1.2.2.5.3.7-.7.4-1.3.7-2 1z"/>
    <path fill="#9E602E" d="M135.4 173.4c-.1 0-.2.1-.4.1 0-.2-.1-.3-.1-.5.1 0 .3 0 .4.1.1.1 0 .2.1.3z"/>
    <path fill="#BB7637" d="M90.3 227.6c-.3 0-.6-.1-1-.1.4 0 .7 0 1 .1z"/>
    <path fill="#B15A1E" d="M113.2 186.7c.1-.1.1-.3.2-.4 0 .1-.1.3-.2.4z"/>
    <path fill="#9E602E" d="M147 175.8c.2.2.3.5.4.7 0 .1-.2.2-.3.4l-.3-.2c-.2-.3-.3-.5-.1-.6.1-.3.2-.3.3-.3z"/>
    <path fill="#A36536" d="M44.7 174.8l1-1-1 1zM45.7 173.8l1-1-1 1z"/>
    <path fill="#D69753" d="M77.4 207.6c.4 4.9.8 9.9 1.2 14.8-2 1.7-4 3.3-6 5-1.2 1.1-.5 2.7-1 4v-.1c-1 2.4-1.8 5-4.4 6.3-2.6-1.4-2.8-3.5-2.4-5.9 1-5.4 2.2-10.6 3.5-15.9.2-.5.4-1 .8-1.4.4-.3.9-.6 1.3-.8.9-4.1 1.9-8.2 3.4-15 .5 4.7.7 6.7.9 8.9.6-.7 1.3-1.3 1.9-1.9 0 .3 0 .6.1.9.2.4.4.8.7 1.1z"/>
    <path fill="#844829" d="M69.5 214.5c-1.3 7.3-2.6 14.6-4.5 25.1 3.7-4.7 5.1-6.5 6.5-8.2-1.6 3.4-3.2 6.7-5.4 11.2-1.9-5.3-3.2-8.9-4.9-13.3-1.3 3.8-2.3 6.6-3.3 9.5-.4-.1-.7-.2-1.1-.3.2-1.1.4-2.1.7-3.2.7-4.3 1.4-8.6 2.1-12.8 6.1-1.8 2.6-9.1 7-11.9 1.8 2 .6 4.1.1 6.1-1.1 4.4-3.1 8.5-2.6 12.4 1.1-4.7-.3-10.8 5.4-14.6z"/>
    <path fill="#7F4F3F" d="M47.9 244.3c.7-3.7 2.6-.5 3.9-.7-.4.6-.7 1.1-1.1 1.7h-.6c-.9 0-1.7-.3-2.2-1z"/>
    <path fill="#572A27" d="M71.5 231.4c-.2-1.5-2.4-3.5 1-4 3.6 2.4-.9 2.6-1 4z"/>
    <path fill="#7F4F3F" d="M52.6 247.3h-2.8l-1.1-1.1c0-1.8.9-1.4 1.9-.8h.1c.6.6 1.3 1.2 1.9 1.9z"/>
    <path fill="#A86934" d="M50.6 245.3c-.6.3-1.3.6-1.9.8-.3-.6-.6-1.2-.8-1.8.9.4 1.8.7 2.7 1z"/>
    <path fill="#D7853C" d="M142.9 54.7c1.6-3.4 3.5 0 5.3-.2 2.1-.4 3.4 1.1 4.6 2.4 8.8 8.5 12.5 19.3 13.5 31.1.5 5.4-2.4 9.8-5.6 13.9-2.3 2.9-2.2 3-1.3 5.9 9.6-5.9 13.3-15.2 10.6-25.8-.9-3.5-2.8-6.7-3-10.4.1-1 .4-1.9 1.8-2.2 2.5 2.9 4.4 6.3 5.7 9.9.3.7.5 1.3.8 2 .4.8.6 1.8.6 2.7-.1 1 .4 1.8.8 2.6.1.5.2.9.2 1.4 1.4 6.6-.3 12.7-3.3 18.5 1.4-2.2 2.1-4.8 3.1-7.2 3.1.3 3.6 2.7 4 4.7 1.9 9.2 3.4 18.4 4.5 27.7.2 1.6.1 3.3-.8 4.8-.8 1.3-2 2.2-3.4 2.7-3 1.2-6.4-1.4-4.8-3.7 3.9-5.7.4-11.4 1.2-17.1v-.9c-.9.7-.8 2-1.7 2.7-4.7 6.2-10.9 11.1-15.3 17.1-2.4-.5-2.7-2-3.1-3.4.3-3.5.4-7 .1-10.5 0-.4 0-.6-.2-.7 0 .1-.1.2-.1.4 0 1-.1 1.9 0 2.9 0 1 0 1.9-.3 2.8-.7 2-1.2 4.1-3.3 5.2-2 .6-3.9.8-5.4-1 .7-2.6 1.3-5.2 2-7.9-.3-.2-.6-.6-.8-.9-.3-1.8-2-2.5-2.9-3.9-1.3-2.7-3.1-5.2-4.1-8.1-.1-.4-.2-.8-.3-1.3-5.4-4.1-5.2-10.6-7-16.2-1.9-5.1-3.8-10.3-3.4-16 .2-2-1.2-3.2-2-4.8-.4-1.1-.3-2.2 0-3.3.1-.9-.3-1.7-.5-2.5-.5-3.3-1.1-6.6-1.3-9.9-.1-1.7-.1-3.2 1.1-4.5 5.7-4.2 6.7-4.1 10.1 2 2.8 5.1 6.4 9.7 8 15.4 1 2.8 1.6 5.6-.1 8.9 6.2-2.8 8.4 1.3 11.1 6.3-2.9-5.9-7.9-8.8-9.9-13.9-2.1-3.7-3.4-7.8-5.7-11.4-1.6-2-1.3-4.3.5-6.3z"/>
    <path fill="#CE8442" d="M150 124.1v1c-4.5-1.9-10-2.4-11.9-8.1 1.1-4-1.7-5.6-4.5-7-1.4-.7-3.2-.8-4.6-1.6-.8-.4-1.7-.8-2.5-1.2-.4-.2-.9-.4-1.3-.7-5.2-3.5-9.7-7.8-12.7-13.4-1-1.9-1.7-3.9-1.6-6.1 0-.8.2-1.5.4-2.2 1.2-3.3 1.4-6.8 1.4-10.2.2-2 .3-4-.4-5.9-.2-.8-.2-1.5-.2-2.3.1-1.3.6-2.4 1.7-3.2.6-.3 1.3-.4 2-.2.3.1.5.4.6.6.1-.1 0-.3-.3-.6-.2-1.5.5-2.4 1.6-3.2.8-.5 1.7-1 2.6-1.4 3.6-1.6 5.4-.7 6.6 3 .8 2.3.9 4.7 1.8 6.9.7.8 1.7 1.3 2.5 2-.3 1-.6 1.9-.9 2.9-.3 2.2 1.1 4.1 1.2 6.3.1 3-1.1 3.9-3.1 2.9 3.8.5 4.5 3.3 3.7 7.2-.8 3.6.4 7.1 1.2 10.5-.5-2.7-1.5-5.3-1.2-7.9 2.6-1.3 2.9 1.2 4.2 1.9 2.3 5.6 4.6 11.3 7 16.9 1.3 3 2.7 5.9 4 8.9.5 1.7 1.7 2.8 2.7 4.2z"/>
    <path fill="#33170C" d="M126.3 106c.3.1.6.3.8.5.6.4 1.5.2 2 .8 5.5.1 9 3.4 11.7 7.7.1.1-1.8 1.4-2.7 2.1-13.6-.5-21.6-9.9-29.8-18.8-.6-.4-.7-1-.7-1.7 0-.4.2-.9.3-1.3l.6-1.2c.3-.4.6-.7 1-.9 3.5 1.6 5.6 4.9 8.3 7.4 2.5 2.4 5.1 4.4 8.5 5.4z"/>
    <path fill="#6C3817" d="M126.3 106c-.8.7-1.6 1.5-2.2 2-5.1-4.7-10-9.2-14.9-13.8-1.9.5-1.6-1.5-2.3-2.2.5 1.4.7 2.9 1.4 4.3v1.9c1.3 3.3 2.7 6.7 4 10-11.7-10.2-9.1-23.6-8.1-36.7 3.1-.1 2.3 2.4 2.8 4-.2 2.1-2.9 4.4.5 6.3 1.9 1.5 2.7 4 4.6 5.5 1.6 8.6 8 13.6 14.2 18.7z"/>
    <path fill="#9E5D2C" d="M148 133c2 0 4 .1 6 .1 1.9-1.2 1.2-3.3 1.8-4.9 0-1 .1-2.1.1-3.1-.6-.7-.6-1.3.1-2 .4-1.5.8-3.1 2-7.9V134c-.6 3.4-3.3 3.3-5.7 3.1-3.8-.4-7.6-.2-11.3-.7-1.6-.2-3-.9-4.6-1-3.1-.2-6.1-.2-9.2-.4-.1-1.3-.1-2.6-.2-3.9 7 .7 14 1.3 21 1.9z"/>
    <path fill="#82502A" d="M117.1 112.3c1 1.2 2.1 2.4 3.1 3.6-.4.4-.9.8-1.3 1.2-.9-1.3-1.9-2.5-2.8-3.8 0-.6.6-.7 1-1z"/>
    <path fill="#663A20" d="M67.4 107.2c.8.1 1.5.2 2.3.4v-.1c-.7.7-1.4 1.5-3 3.3.4-2 .6-2.8.7-3.6z"/>
    <path fill="#6C3817" d="M115.2 111.2l-3-3 3 3z"/>
    <path fill="#9E5D2C" d="M121.2 132.1c.3-.7.6-1.3.9-2 .7.3 1.4.6 2 .9v.9c-.8 1-1.8.7-2.9.2z"/>
    <path fill="#170B0B" d="M69.7 107.5c.9-.4 1.9-.8 2.8-1.3-1 .5-1.9.9-2.8 1.3z"/>
    <path fill="#6C3817" d="M117.1 112.3l-1 1v-.1c-.4-.5-.3-.9.2-1.3.3.2.6.3.8.4z"/>
    <path fill="#82502A" d="M116.3 112.1c-.1.4-.1.8-.2 1.3-.3 0-.6 0-.9-.1v-1.1c.3-.3.7-.3 1 0l.1-.1z"/>
    <path fill="#6C3817" d="M116.3 112.2h-1c0-.3 0-.7-.1-1 .3.3.7.6 1.1 1z"/>
    <path fill="#9B5E2C" d="M57.6 217.5c-.8-1.3-1.7-2.7-2.6-4.2-1.9.4-4 1-9.8 2.4 5.2-2.5 7-3.3 8.8-4.2-.1-1.7-.3-3.3-.4-4.9h.1c.7.9 1.4 1.7 3.4 4.1 2-8.4 3.6-15.5 5.3-22.7.2.1.4.2.6.2-1.8 9.7-3.6 19.5-5.4 29.3z"/>
    <path fill="#925629" d="M63.6 203.6c-1.3 6.3-2.7 12.6-4 18.9-1 .7-2 1.3-3 2-.4-.2-.7-.5-.9-.9.6-2 1.2-4 1.9-6.1l-.1.1c2.1-4.7 4.1-9.4 6.1-14z"/>
    <path fill="#A96928" d="M54.4 201.2c1.7-4.8 3.4-9.7 5.2-14.5-1.5 5-3.1 10.1-4.6 15.1-.3.1-.5.1-.8.2.1-.3.2-.5.2-.8z"/>
    <path fill="#9B5E2C" d="M52.6 201.6c.6-.1 1.2-.2 1.8-.4.1.2.3.4.5.6-.4 1.6-.9 3.2-1.3 4.7h-.1c-2-.7-4.1-1.5-6.1-2.2 1.8-.8 3.5-1.8 5.2-2.7z"/>
    <path fill="#733824" d="M47.7 191.6c-.9-.5-1.9-.9-3.1-1.6 1.5-.2 2.8-.3 4.1-.5.8-.2 1.6-.5 6.8-1.9-5.2 2.7-6.5 3.3-7.8 4z"/>
    <path fill="#8B4F2E" d="M54.6 226.4l-4.5 3.3c-.3-.4-.6-.8-.8-1.2 1.5-.9 3-1.9 4.5-2.8.4 0 .6.3.8.7z"/>
    <path fill="#925629" d="M63.6 203.6c.2-1.4.4-2.9 0 0 1.2-2.7.6-1.3 0 0z"/>
    <path fill="#9B5E2C" d="M52.7 201.6c-.8-.8-1.6-1.5 0 0-1.1-2-.6-1 0 0z"/>
    <path fill="#69301D" d="M54.6 226.4c-.3-.3-.6-.5-.8-.8.7-.7 1.4-1.4 2-2.1l.9.9c-.8.7-1.4 1.3-2.1 2z"/>
    <path fill="#A96928" d="M59.6 186.7c.1-.1.1-.3.2-.4-.1.1-.2.3-.2.4z"/>
    <path fill="#884B1E" d="M183.8 136c-1.6-12-3.3-23.9-5.1-37.2-3.7 5.7-6.4 10-9.1 14.3 6-8 6.8-17.1 6.1-26.6.1-.6.5-1 1.1-1.1 5.4 12.2 10.7 24.4 16.1 36.5l-.5.5c-1.8 0-2.7-1.2-3.4-2.5-2.8-5.4-6-10.7-7.5-16.6l-.2.2s.3.2.3.3c4 10.3 4.1 21.3 6.5 31.8.2 2.3-.6 4.2-2.3 5.7-3.3-.9-2.3-3.2-2-5.3z"/>
    <path fill="#7E4217" d="M202.4 140h-1.7c-4.3 1.2-7.2 4.9-11.1 6.8-2.3-4.3-1.7-5.4 5-9.6-.9.4-1.9.5-2.9.3-1.4-.4-2.6-1.2-3.3-2.6.5-3.1 4-3 5.5-5.1-.1-2.6-2.9-4.7-1.6-7.6.2-.1.4-.2.6-.4 3.2 6.2 6.3 12.2 9.5 18.2z"/>
    <path fill="#8D4C1B" d="M218.3 138c-1.5 5.6-7.4 5.2-10.9 8-1.1-.7-1.8-1.6-1.8-2.9 4-2.3 6.7-7.8 12.7-5.1z"/>
    <path fill="#662C0E" d="M176.8 85.4l-1.1 1.1v-.1c-.5-.6-.4-1.4-.7-2-.1-.9-.2-1.9-.4-2.8-.2-.4-.4-.8-.7-1.2-1.8-3.3-3.6-6.6-5.3-9.9 0-.1-.4-.1-.4 0-.2.3-.3.6-.5.9-2.7-1.6-1.8-2.9.3-4.2 2 2.7 4 5.5 6 8.2l1.8 6c.5.6.3 1.5.8 2.1.1.6.2 1.2.2 1.9z"/>
    <path fill="#231313" d="M205.6 143.1c.6 1 1.2 1.9 1.8 2.9-.5.4-1.1.8-1.6 1.2-.5.1-.9.4-1.3.7h-1.8v-4c.3.1.6 0 .9-.1.4-.2.8-.3 1.1-.5.3-.1.6-.2.9-.2z"/>
    <path fill="#884B1E" d="M176.7 83.4c-.3-.7-.5-1.4-.8-2.1.2.8.5 1.4.8 2.1z"/>
    <path fill="#8D4C1B" d="M204.7 143.2c-.4.2-.8.3-1.1.5.4-.2.7-.3 1.1-.5z"/>
    <path fill="#D78C44" d="M191.7 137.1c2.4-.8 4.8-1.7 10.7-3.7-5.9 6.4-12.7 5.7-13.8 12.8 4.5-2.3 6.6-7.9 12.1-6.2-1.1 3.2-2.2 6.4-3.3 9.7-2.7-.7-4.8-1.3-9.9-2.6 5.6 3.2 6.8 6 6.2 10.8 1.9-2.2 2.8-3.2 8.2-9.3-4.8 8.9-6.4 12.1-8.1 15.3-.4 0-.9-.1-1.3-.1-.6-.8-1-1.7-.6-2.9-.4 1.1-.3 2.1-1.1 2.8.2.6.4 1.2.5 1.7-1.6.1-4.4-.2-4.7.5-1.3 2.9 2.3 2.6 3.1 3.8 2.6 3.8 4.4 8.3-1.9 11-2.5-.3-1.9-3-3.3-4.2-1.6-3-3.5-5.9-4.4-9.3.9 3.5 2.9 6.6 4.7 9.8.4.6.6 1.3.5 2-.3 1.2-1.3 1.9-1.8 2.9-1.7 3.6-4.3 4.2-7.6 2.1-.9-.3-1.5-.9-1.9-1.8-.4-.5-.8-1-1.3-1.4-.7-.9-1.8-1-2.7-1.7-.3-.3-.6-.7-.8-1-.5-2.2-1.8-4.1-2.5-6.2-.2-.2-.3-.4-.3-.4.2.2.3.4.5.7.5 2.2 2 4 2.4 6.1.6.9 1.4 1.4 2.4 1.8.3.2.6.5.9.7.4.4.9.8 1.2 1.3.2.4.3.8.3 1.2.3 1.2 1 2.3 1.1 3.6 0 .4-.1.9-.3 1.2-.5.6-1 1.1-1.7 1.2l.3.3c2.9-.7 2.5 1.1 2 2.7-.6 1.8-2.3 2-3.9 2.4l-.9.9c-3.7-1.8-6.8-5.4-12.7-2.4 1.8-4.1 2.9-6.6 4.7-10.9-3.9 3.1-3.5 9.3-9 6.5-3.4-6.9 5.9-3 6-7 1.9-6.2-10.1-12.2.4-18.8-12.8 6.2-22.6 2.6-30.9-7-.8-1.3-1.6-2.6-2.3-3.9-.3-.3-.6-.7-.8-1v-.1c.2-1.7 2.4-3 1.1-5 0-1.9.1-3.8.1-5.8 1.9-3.5 6.4-3 8.7-5.8 1.3.3 2.6.6 4 .8.5 3.2-1.1 5.4-3.4 7.3 4.7 5.6 12.4 8.2 19.8 6.7 1.9-.4 3.8-1.2 5.7-.2 1.4 1.8 1.2 4 1.4 6.1.3 2.1.5 4.3 2.8 5.5 1.1-1.1.1-2.1-.2-3.1-.3-1.1-.7-2.2-.6-3.4.4-3.2 1.1-6.9 4.7-7.3 3.7-.4 2.4 3.8 3.8 6.9.7-3.9 0-6.5-1.5-9-1.4-2.4-3.1-4.7-2.6-7.8.3-2 .9-3.9 3-4.8 1.5-.7 2.4-1.7 2.3-3.4v-2.9c.1-2.2-.3-4.5.8-6.6.2-.7.5-1.4.7-2.2.1-.8.4-1.4 1.1-1.8 1.5 7.7 3.3 15.5-2.3 25.1 4.6-2.4 6.4-3.3 8.3-4.3.6 1.7 1.2 3.4 1.9 5.1 2.7-.3 3.2-3.8 6-4z"/>
    <path fill="#AD6E32" d="M175.7 182.7c1.5.5 2.9.9 4.4 1.4 1.5-1.8 3.1-3.6 4.7-5.4 4.2 3.9 5.1 9.5 7.6 14.3-1.6 1.3-2.7 2.6-4.6 1.8-2-1.6-4-3.2-9.6-7.8 4 4.7 5 5.9 6.1 7.3-2.6 3-5.3 3.8-8.7 1.5-1.5-2.6 1.5-5.7-1-8.2 0-.3 0-.5-.1-.8.1-.6.4-1 .8-1.4 1.6-.8-.6-1.8.4-2.7z"/>
    <path fill="#66301F" d="M187.9 194.7c1.3-.6 2.5-1.1 4-1.8-2.5-5-4.8-9.6-7-14.2v-1.9l-.1.1c1 1.3 2.1 2.6 3.1 3.9 2.3 5 4.6 9.9 6.8 14.9-2.3-.4-4.6-.7-6.8-1z"/>
    <path fill="#90512F" d="M174.7 187.6c2.6 2.5 2.4 5.3 1 8.2-1.3-.4-2.6-.8-3.9-1.1 1.6-.8 3.3-1.6 4.9-2.4-.6-.7-1.1-1.4-1.7-2.1-1.3.2-2.6.5-3.9.7-.3.1-.5.1-.8.2.1-.2.2-.5.2-.7 1.5-1 2.9-1.9 4.2-2.8z"/>
    <path fill="#DCD7D6" d="M136.1 217.6c5.3-3.7 10.6-7.3 15.9-11-5.3 3.7-10.6 7.4-15.9 11z"/>
    <path fill="#925B3B" d="M137 223.5c-.3-.7-.7-1.3-1-2 .7.4 1.5.7 2.2 1.1-.3.3-.7.6-1.2.9zM136.1 221.5c-.6-.5-1.1-1.1-1.7-1.6.5.5 1.1 1 1.7 1.6z"/>
    <path fill="#925B3B" d="M135.1 224.4c.7-.3 1.3-.7 2-1-.7.4-1.4.7-2 1z"/>
    <path fill="#72452D" d="M63.5 272.2c-7.7-4.5-13.1 3.1-19.8 3.9l.1-.2c.3-.2.5-.4.6-.7.2-.4.3-.8.5-1.3.3-.5.3-1.2.8-1.5 9.1-12.2 20.8.4 30.8-3.3-4.4 1-8.7 2.1-13 3.1z"/>
    <path fill="#9E6034" d="M45.7 272.4c-.3.5-.5 1-.8 1.5.3-.5.5-1 .8-1.5zM44.4 275.2c-.2.2-.4.5-.6.7.1-.3.3-.5.6-.7z"/>
    <path fill="#E8934B" d="M118.1 60.6c-.6 1-1.3 2-1.9 3h-1.8c-1.2.1-2.3.5-3.5 0-.5-.2-.9-.4-1.2-.7-.7-.7-1.1-1.5-1.1-2.5 1.2-2.8-.2-5.8.7-8.6 1.6-5.2 1.5-10-2.9-13.9v-8c2.3-2 4.5-4 6.8-6.1 2.2.3 1.1 1.3.5 2.2-2.3 2.5-.3 3.7 1.4 5.1.4.3.8.5 1.2.8 5.4 5.8 7.6 13 8.5 20.7.2 1.6.7 3.3-.8 4.6-.5.4-1.2.5-1.8.6-.4.1-.7.3-1.1.5l-.9.6c-.1.1-.3.2-.4.4-.3.2-.5.5-.7.8-.4.1-.6.3-1 .5z"/>
    <path fill="#471B0C" d="M109.2 51.6c1.7 3 2.5 5.9.1 8.9-.7 1.2.5 1.4.9 2 .7 1.9-1.3 3.5-.7 5.5 1.9 5.6-.5 11.9 2.8 17.3-.1.7-.2 1.3-.3 2-4 .6-3.5-3-4.8-5-2.3-1.7-2.4-3.7-.9-5.9-.7-1.6-1.4-3.2-2.2-4.8-.5-1.1-.6-2.1.1-3.2l-.3-.9c.5-3.2 1-6.5 1.4-9.8 1.3-2 2.6-4 3.9-6.1z"/>
    <path fill="#532A1A" d="M91.7 50.2c-.4-.3-.9-.6-1.3-.9-.2-1.2-.4-2.5-.7-3.7l7.5-2.1c-.5 2.1-1 4.2-1.5 6.2-1.9-4.5-2.7.2-4 .5z"/>
    <path fill="#894F1F" d="M62.6 148.1c-2.5-1.4-6.3 2.2-7.9-2.1 13.3-.3 26.5-.7 39.8-1l.3.9c-.2 1.9-1.7 2.3-3.1 2.5-9.1 1.5-18.2.2-27.4.8-.7-.1-1.2-.6-1.7-1.1z"/>
    <path fill="#CB9059" d="M125 142.1l-1.8 3c-.6.6-1.3 1.2-2.1 1.1-7.2 0-14.3.8-21.5.8-.9-.3-1.5-.9-1.9-1.7-.2-.9 0-1.7.6-2.4 0-.8-.1-1.7-.1-2.5l3 .6c1.4 1.6 3.3.9 5.1 1 6.3.3 12.5-.7 18.7.1z"/>
    <path fill="#A2612A" d="M125 142.1c-7.9-.3-16 3.3-23.7-1.1 7.9 0 15.8 0 23.7-.1v1.2z"/>
    <path fill="#6B4421" d="M70.5 138.9c2.6.4 5.3.7 7.9 1.1-1.2.9-2.5.6-3.8.2H50.4c8-1 12.1-1.5 16.2-2.1 1.3.3 2.6.5 3.9.8z"/>
    <path fill="#7F4616" d="M53.6 144c7.7-4.1 15.7-1.9 23.6-1.1-7.8.4-15.7.7-23.6 1.1z"/>
    <path fill="#5C2B0A" d="M98.4 142.8v2.2c-1.4 2.2-2.7 1.3-4-.1h.1c1.2-.6 2.6-1.4 3.9-2.1z"/>
    <path fill="#804E25" d="M190.8 163.7v-5.9h1.5c.1 2 .2 4 .3 6.1-.7-.1-1.3-.2-1.8-.2z"/>
    <path fill="#D78C44" d="M194.7 180.7c.1.1.2.1.3.2-.1 0-.2-.1-.3-.2zM194.6 180.7c-.1-.1-.2-.1-.3-.2.1.1.2.2.3.2z"/>
    <path fill="#CD885E" d="M116.1 16.9c-5.2 5.6-5.4-3.1-8.7-3-.1-.3 0-.5.1-.8.5-.9 1-.8 1.6 0h.1l1.2.6c1.8 1.1 3.8 2.2 5.7 3.2z"/>
    <path fill="#6D381A" d="M103.4 12.8c1 .3 2 .6 3.1.9-.1.2-.3.3-.4.5-1.3.7-2.4.7-2.9-1l.2-.4z"/>
    <path fill="#170C09" d="M119.2 16.9h-2.1 2.1z"/>
    <path fill="#6D381A" d="M95.5 11.8l2.1.9c-.1.4-.4.7-.8.8-.9 0-1.6-.3-1.6-1.3l.3-.4zM109.1 13.1h-1.6 1.6zM110.3 13.8l-1.2-.6c.4.1.8.3 1.2.6z"/>
    <path fill="#6D381A" d="M97.6 12.7c.4.3.7.6 1.1.9l-.4.4c-.8.3-1.1-.1-1.1-.9.1-.2.2-.3.4-.4zM88.5 11.7c-.4-.3-.7-.5-1.1-.8.4.3.8.5 1.1.8z"/>
    <path fill="#8B5A3F" d="M129 225.3c-.5-.3-1.6-.9-3.4-1.9l6.6-3.3c-1.2 1.9-2 3.3-3.2 5.2z"/>
    <path fill="#D4824D" d="M81.4 22.9c2.7-1.3 5.4-2.7 8.6-4.2-.7 4.9-4.2 3.8-6.8 4.3-.5 0-1.2-.1-1.8-.1z"/>
    <path fill="#CF8753" d="M89.5 24.6c1.9-.8 3.7-1.7 5.6-2.5.1 1 .2 1.9.3 2.9-1.7.8-3.4.7-5-.1l-.9-.3z"/>
    <path fill="#9E5629" d="M90.4 24.8c1.7 0 3.4.1 5 .1-1.7 0-3.3-.1-5-.1z"/>
    <path fill="#B47B4B" d="M94.4 144.9c1.3 0 2.7.1 4 .1.3.3.7.6 1 1 .7.8 2.1 1.1 2 2.7-1.3 2.4-4.4.3-6 2.2-.1.4-.1.8-.2 1.3-2.9-5.9-7.6-1-8.4-1.3-.3 0 2.4.2 5 .4v1.5c-6.3.3-12.7.6-19 .9 0-.6-.1-1.2-.1-1.8 1.9-.2 3.9-.5 5.8-.7v-1.1h-10c-2.6 1.1-5.3 2.5-7.8-.2.7-.6 1.3-1.1 2-1.7 10.4-2.1 21.6 3.4 31.7-3.3z"/>
    <path fill="#673610" d="M60.6 149.8c2.6.1 5.2.1 7.8.2.6.8 1.1 1.6 2.2 3.1-1.8-.6-2.9-.9-4.5-1.4.6 1.4 1 2.4 1.3 3.4-1.6-.7-3.3-1.4-6.4-2.8 2 2.1 2.8 3 4.7 5-5.5-2.2-9.7-3.9-13.9-5.6 3-.6 5.9-1.2 8.8-1.9z"/>
    <path fill="#80491A" d="M43.6 144.1c-1.9-.1-3.9-.2-11.2-.6 7.9-1.2 10.5-1.6 14.6-2.3-5.6-.3-9.7-.5-13.7-.7 0-.6 0-1.2.1-1.7h17.7c-.3 6-4.1 5.3-7.5 5.3z"/>
    <path fill="#B67C4B" d="M74.6 140.1c1.3-.1 2.5-.1 3.8-.2h4.7c0 .4-.1.8-.1 1.3-2.8-.3-5.6-.7-8.4-1.1z"/>
    <path fill="#9E6034" d="M49.7 279.1c.1.1.2.1.4.2-.2-.1-.3-.2-.4-.2z"/>
    <path fill="#431907" d="M118.1 60.6c.2-.2.2-.4.2-.7.1-.6.5-1 1-1.2l-.1.1c.2-.6.6-.9 1.3-1 .3 0 .5-.1.6-.3.4-.3.7-.6 1.2-.8 2.8-9.5-3.6-16.7-6.2-24.9 3.6.7 7.2 3.7 11 .1.4 1.8.7 3.2 1 4.7-.3.3-.6.6-.9.8-1.3 2.9.3 5.6.8 8.3.5 2.6 1.6 5 1.5 7.6 0 .5-.2.9-.5 1.2.3 4.6.7 9.2 1 13.8.1 1.9-.9 1.7-2.1 1.1-4-1.9 1.6-14.8-9.8-8.8z"/>
    <path fill="#633212" d="M129.1 54.7c-.1-.3-.1-.7 0-1-.6-1.1.1-1.9.8-2.5 2.5-2 1.9-4.1.4-6.5-1.3-2-3.3-3.9-1.7-6.7.2-.1.4-.3.6-.4 1-.2 2-.5 3.1-.7-.7 5.6 8.4 7.4 5.3 13.8 1.8 1.4 3.6 2.7 5.3 4 2 5.9 4 11.8 6.1 17.7-1.4 1.1-2.2.1-3-.9-3.8-6.6-7.6-13.2-11.5-19.9-2 1.2-3.7 2.1-5.4 3.1z"/>
    <path fill="#BD743F" d="M113.2 25.8c0-.7-.1-1.4-.1-2.1-2.7-4.7-3.4.3-4.9 1.1-.5-.6-.5-1.3.1-1.9-5-.9-10.1-1.8-16.6-3 2.3-.7 3.1-.9 3.9-1.2 8.6.8 17.3 1.5 25.9 2.3-1.8 2.5-3.1 5.7-7.2 4.9-.4.4-.8.3-1.1-.1z"/>
    <path fill="#6C3C1C" d="M113.2 25.8c.3 0 .7 0 1 .1.3 1.7.5 3.4.8 5.1-1.4.1-2.8.1-5.2.3 1.4-2.2 2.4-3.9 3.4-5.5z"/>
    <path fill="#633212" d="M137.1 37.1H134h3.1zM127.2 36.7c.3 0 .7-.1 1-.1l1 1-.4.4c-1 .2-2 .2-1.6-1.3zM133 36.8l-.3.1h-.3c.1 0 .3-.1.6-.1z"/>
    <path fill="#221410" d="M168 67.2l-.3 4.2c7.1 14.2 7.2 27.2-6.6 37.8-.9.7-2.4.7-3.6 1-.3-2.1-1.5-4.8-.7-6.3 10.6-18.7 7.6-36.2-8.7-49.4-.7-1.3-1.5-2.6-2.2-4-.7-.7-1.5-1.5-1-2.6.4-1 1.2-.9 2-.3 9.3 3.4 13.5 12.5 20.7 18.2.2.5.3 1 .4 1.4z"/>
    <path fill="#5F3C1A" d="M147 47.7c-.3.9-.7 1.9-1 2.8-3.7-1.7-7.3-3.4-6.7-9.3 2.9 2.5 5.3 4.5 7.7 6.5z"/>
    <path fill="#673610" d="M72.6 156.8h1.9-1.9z"/>
    <path fill="#DB914D" d="M108.2 22.8c0 .6 0 1.3-.1 1.9-2.6.5-5.3.9-7.9 1.4-.1-.7-.2-1.5-.4-2.2 2.9-.4 5.7-.7 8.4-1.1z"/>
    <path fill="#743820" d="M98 269.5c.1-1.2 5.3.7 1.2 5.3-.8-3.6-1.5-6.5-1.2-5.3z"/>
    <path fill="#89502A" d="M96.4 276.1c-.1-.3-.2-.6-.2-.9.2.2.4.4.5.6l-.3.3z"/>
    <path fill="#C99E7B" d="M102.2 235.5c1.7-.7 3.4-1.3 5.1-2-1.5 1.2-2.1 4.6-5.1 2zM97.2 236.3c1.4-.2 2.7-.4 4.1-.6-1.4.2-2.7.4-4.1.6zM107.9 233.2c.4-.2.9-.5 1.3-.7-.4.2-.8.5-1.3.7z"/>
    <path fill="#D19669" d="M103.1 13.1c1 .3 2 .7 2.9 1 .7 1.2 1.5 2.4 4.7 7.9-5.6-4.9-7.6-6.6-9.6-8.3.7-.2 1.4-.4 2-.6z"/>
    <path fill="#D69A6F" d="M97.2 13.1c.4.3.7.6 1.1.9.6.9 1.2 1.8 4 5.8-4.8-3.7-6.8-5.2-8.7-6.6.5-.3 1-.7 1.5-1 .7.2 1.4.6 2.1.9z"/>
    <path fill="#6C3817" d="M104.2 68.4c0 1.1-.1 2.1-.1 3.2.1-1.1.1-2.1.1-3.2z"/>
    <path fill="#985D27" d="M95.4 150.9c1.6-.9 3.1-1.8 4.8-2.8-.2-.4-.5-1.3-.8-2.1 8-.3 15.9-.6 23.9-.9l1 1c-.2 1.9-1.6 1.8-2.9 1.8-4.5.1-9.1 0-13.6 0 6.1.1 12.2 0 18.2-.1.5-.7.9-1.3 1.4-2-.4 1.7-.7 3.3-1.1 5-.4.4-.8.7-1.2 1.1-2.9-2.5-5.8-3.5-8.8-.1-.6.6-1.2.6-1.8.2-6.2-4.4-12.8-.1-19.1-1.1z"/>
    <path fill="#D99451" d="M136 134.3c1.4 6.2-8.4 1.7-6.8 8.5-1-1.5-1.5-2.1-1.9-2.7 0-1.6-.1-3.3-.1-4.9 2.6-3.8 5.9-.3 8.8-.9z"/>
    <path fill="#B97E4A" d="M125.9 147.9c-6.8.5-13.7 1-20.5 1.5 0-.6-.1-1.2-.1-1.8l18.9-1.5h.8c.4.2.7.5.9.9.1.3 0 .6 0 .9z"/>
    <path fill="#CF997B" d="M121.2 132.1c1-.1 2-.1 2.9-.2-.9.1-1.9.2-2.9.2z"/>
    <path fill="#985D27" d="M125.9 147l-.9-.9.9.9z"/>
    <path fill="#6B3B1A" d="M204.5 147.8c.4-.2.9-.4 1.3-.7-.4.3-.9.5-1.3.7z"/>
    <path fill="#652D07" d="M114.4 152.1c.6 0 1.2-.1 1.8-.2.8 1.4 1.7 2.9 5.8 9.8-5-5.8-5.9-6.8-6.8-7.8-.3-.3-.6-.7-.8-1.1v-.7z"/>
    <path fill="#985D27" d="M114.4 152.8c.3.4.5.7.8 1.1-.3-.4-.5-.7-.8-1.1z"/>
    <path fill="#D99A56" d="M69.5 214.5c-1.8 5.7-3.6 11.4-5.6 17.4-3.6-7.8 2-14.3 2.6-21.4 1.4-4 2.9-8 5.5-15.4-1.1 8.5-1.8 13.4-2.5 18.4.2.2.3.5.2.7 0 .2-.1.3-.2.3z"/>
    <path fill="#844829" d="M69.5 214.5c0-.3 0-.7.1-1h.8c-.3.4-.6.7-.9 1z"/>
    <path fill="#A86932" d="M77.4 207.6c-.2-.4-.5-.8-.7-1.1.2.4.4.7.7 1.1z"/>
    <path fill="#D79856" d="M147 175.8c-.1.3-.1.6-.2.9-1.7 1.7-3.2 3.9-5.8 1.1.1-1 .2-2 .3-2.9 1.9.2 3.8.5 5.7.9z"/>
    <path fill="#985D27" d="M126.2 150.9c.3.3.6.7.8 1-.2-.3-.5-.6-.8-1z"/>
    <path fill="#8E4F27" d="M72.6 214.7c-.2 3.6-.5 7.3-.7 10.9-.5 0-1-.1-1.6-.1.4-3.6.9-7.3 1.3-10.9.4 0 .7 0 1 .1z"/>
    <path fill="#D99451" d="M176.8 129.1c-11.5 7.3 4.7 19.5-5.1 29.8v-12.8c-5.7 5.5-6 10.2-.7 15.7-2.5.7-4.7 1.9-5.3 1.4-4.1-3.8-3.9-9-3.8-14.1 0-.9.6-1.5 1.3-1.9.6-.3 1-.6 1.5-1 .7-.4 1.3-.8 1.9-1.4.2-.2.5-.4.7-.6l.3-.3.1-.3-.3.2c-.2.3-.4.5-.7.7-9.3 7.8-20.1 6.3-28.4.4-1.1-.8-2.2-1.5-2.2-3 1.3-2.3 2.6-4.6 4-6.8 6-.3 12-.7 18-1 1.3-1.2 2.4-2.7 3.9-3.6 1.5-.9 3.5-1.3 4.2-1.6 3.3-3.6 6-6.7 8.8-9.7 1.4 1.7.7 3.7.8 5.6 0 1.5-.7 3.2 1 4.3z"/>
    <path fill="#6D3314" d="M136 94.3c-1.1-.4-2.2-.8-3.8-1.3 1.1 4.3 2.2 8.4 3.3 12.5-3.5-6.3-6.4-12.7-4.4-20.3-3.7-1.2-5.5-3.9-6-8.9 1.6 2.7 2.7 4.4 3.8 6.1 4.4-3.1-4.3-6.6 1.2-9.2 2 7.1 4 14.1 5.9 21.1z"/>
    <path fill="#B66A2C" d="M145.9 71.6l3 .9c4.4 5.8 8.8 11.5 13.2 17.3-.4.3-.8.7-1.1 1-3-3.5-6.1-7-8.8-10-3.3.2-6.4.4-11.8.7 3.2-2 4.5-2.8 6-3.7-.2-2-.3-4.1-.5-6.2z"/>
    <path fill="#803E0B" d="M174.5 126.2c.1-2.3.3-4.7.4-7 .4-2.3.8-4.6 1.5-8.3.8 2.3 1.1 3.3 1.4 4.4-.1.6-.1 1.2-.2 1.8-.2.3-.4.7-.6 1-.2 2.6-.3 5.2-.5 7.8-.5.7-.1 1.9-1.2 2.3-1.1-.2-1-1.1-.8-2z"/>
    <path fill="#CC8D4F" d="M150 124.1c-1-1.3-2-2.7-3-4 1.2 1.2 5 .5 3 4z"/>
    <path fill="#722C05" d="M150.7 85.9c1.1 1.1 2.2 2.2 3.2 3.3-.3.4-.7.8-1 1.2-1.3-.9-2.7-1.9-4-2.8.5-.5 1.2-1.1 1.8-1.7z"/>
    <path fill="#CC8D4F" d="M155.8 128.2c-.6 1.6 3.2 4.9-1.8 4.9.6-1.6 1.2-3.3 1.8-4.9z"/>
    <path fill="#6D3314" d="M128.1 69.5c.7-.4 1.4-.7 2.1-1.1.3.7.6 1.3.9 2l-3-.9z"/>
    <path fill="#CC8D4F" d="M156 123.1c0 .7-.1 1.3-.1 2 0-.7.1-1.3.1-2z"/>
    <path fill="#884B1E" d="M175 84.4c.2.7.5 1.4.7 2-.2-.6-.5-1.3-.7-2zM174 80.4c.2.4.4.8.7 1.2-.3-.4-.5-.8-.7-1.2z"/>
    <path fill="#76401F" d="M112.3 85.4c-6.5-4.9-2.3-12-3.8-18 1.6-.5 3-1.5 4.8-.9.1.6.2 1.3.2 1.9.7 2-.2 4.1.6 6.1-.7 3.7-1.2 7.3-1.8 10.9z"/>
    <path fill="#A26333" d="M113.2 66.5c-1.3 1.7-2.6 3.5-4.8.9.6-1.6 1.2-3.2 1.7-4.8l4.2.9c-.3 1-.7 2-1.1 3zM116.2 63.5c.3 1.6.6 3.3 0 0-.6 3.3-.3 1.7 0 0zM114 74.5c-.2-2-.4-4.1-.6-6.1.2 2.1.4 4.1.6 6.1z"/>
    <path fill="#6C3817" d="M129.1 107.2c-.7-.3-1.3-.5-2-.8.7.3 1.3.6 2 .8z"/>
    <path fill="#D7853C" d="M143 111.2c-.1-.1-.2-.1-.3-.2.1.1.2.1.3.2z"/>
    <path fill="#B27640" d="M108.3 96.4c-1.2-2.8-2.5-5.5-3.7-8.3.4-.2.8-.3 1.2-.5 1.1 2.2 2.3 4.5 3.4 6.7v1.1c-.3.3-.6.6-.9 1z"/>
    <path fill="#6C3817" d="M108.3 96.3c.3-.3.6-.7.9-1-.3.4-.6.7-.9 1z"/>
    <path fill="#9E6239" d="M106.3 76.4c.3 2 .6 4 .9 5.9-.9-.1-1.8-.2-2.8-.3.7-1.8 1.3-3.7 1.9-5.6z"/>
    <path fill="#D58539" d="M192.3 122.3c1.2 2.7 2.4 5.4 3.7 8.4-2.4 1.4-4.9 2.8-7.4 4.3-.1.6-.4 1-1 1-2.3-11.5-4.6-23.1-7-34.6l.3-.2c3.8 7 7.6 14.1 11.4 21.1z"/>
    <path fill="#32140E" d="M187.6 136l1-1 3 2.1c-2 1.3-1.6 6.3-6 4 .7-1.7 1.3-3.4 2-5.1z"/>
    <path fill="#D58539" d="M180.6 101.4c-.3-.6-.5-1.2.7 1.6-.7-3-.6-2.4-.4-1.8l-.3.2z"/>
    <path fill="#8F4D14" d="M167.9 145c-1 .7-2 1.5-3 2.2-.4.2-.7.5-1 .7-.6.4-1.3.7-1.9 1.1-12 4.5-21.7.3-32.3-10.3 3.9 1.9 5.2 2.5 6.5 3.1 10.6 8 21.3 10.8 31.8-.1.3-.1.6-.1 1 0l.2.2c.3.7.3 1.4-.2 2l-.1.1c-.4.3-.7.6-1 1z"/>
    <path fill="#894E1F" d="M184.8 176.8c-1.9-3-3.8-6-5.7-9.1.5-.3 1-.5 1.5-.8 1.3 3.3 2.7 6.6 4.2 9.9z"/>
    <path fill="#DAA577" d="M175.7 182.7c1.2 1.7 2.5 3.5 3.7 5.2-.3.2-.6.4-.8.7l-2.7-3c-1.5-.5-2.5-1.2-2.2-3 0-.3 0-.6.1-.9.6.4 1.3.7 1.9 1z"/>
    <path fill="#8A4F27" d="M167 171.6c1 2.3 1.9 4.6 2.9 7l-.3.3-3-6.9.4-.4z"/>
    <path fill="#D7853C" d="M174.5 126.2c1.3 3.4 1.4-.2 2.2-.4 0 1.1.1 2.2.1 3.3-1.8-.1-3.9-.1-2.3-2.9z"/>
    <path fill="#90512F" d="M173.7 182.7c.7 1 1.5 2 2.2 3l-1.2 1.2c-.3-1.4-.7-2.8-1-4.2z"/>
    <path fill="#8A4F27" d="M166.7 171.9c-.6-1.2-1.3-2.4-1.9-3.7.3-.1.6-.3.9-.4.5 1.2.9 2.5 1.4 3.7l-.4.4z"/>
    <path fill="#824B3B" d="M171.1 190.9c-.8.5-1.7 1-2.5 1.5-.2-.3-.3-.6-.5-.9.8-.4 1.6-.8 2.4-1.1.2.1.4.3.6.5z"/>
    <path fill="#DAA577" d="M170.8 178.7c.7.7 1.4 1.3 2 2h-.8c-.9-.3-1.7-.8-1.2-2z"/>
    <path fill="#7B4122" d="M170.8 178.7c.4.7.8 1.3 1.2 2-.8-.6-1.6-1.3-2.3-1.9l.3-.3c.2.1.5.2.8.2z"/>
    <path fill="#DAA577" d="M172.8 180.7l1 1c-.3-.3-.7-.6-1-1z"/>
    <path fill="#D7853C" d="M177.1 118.1c.2-.3.4-.7.6-1-.2.3-.4.6-.6 1z"/>
    <path fill="#A26333" d="M110.2 62.6c-1.4-.2-3.1-.2-.9-2 .3.7.6 1.3.9 2z"/>
    <path fill="#CE8442" d="M119.4 58.7c-.3.4-.7.8-1 1.2.3-.4.6-.8 1-1.2z"/>
    <path fill="#CE8442" d="M120.6 57.8c-.4.3-.9.7-1.3 1 .4-.4.8-.7 1.3-1zM122.4 56.7c-.4.3-.8.5-1.2.8.4-.3.8-.6 1.2-.8z"/>
    <path fill="#D7955D" d="M127.2 36.7c.5.4 1.1.9 1.6 1.3 1.8 3.5 3.5 6.9 5.5 10.9-1.4 1.2-3.3 3-5.2 4.7-1.8-6.2-3.5-12.3-5.7-20 2 1.7 2.9 2.4 3.8 3.1z"/>
    <path fill="#D78C44" d="M168.9 144c.1-.7.1-1.3.2-2-.1.7-.1 1.3-.2 2zM163.8 147.9c.3-.2.7-.5 1-.8-.3.3-.7.6-1 .8zM167.9 145c.3-.3.7-.6 1-.9-.4.3-.7.6-1 .9zM168.9 141.8h-1 1z"/>
  </g>
</svg>